<?xml version="1.0" encoding="UTF-8"?>
<svg id="Layer_2" data-name="Layer 2" xmlns="http://www.w3.org/2000/svg" viewBox="0 0 19 20.45">
  <defs>
    <style>
      .cls-1 {
        fill: #957df3;
        stroke-width: 0px;
      }
    </style>
  </defs>
  <g id="Layer_1-2" data-name="Layer 1">
    <path class="cls-1" d="M9.5,0c-.37,0-.74.02-1.04.06-3.21.45-5.74,2.98-6.2,6.2-.09.61-.07,1.48-.07,2.01v2.55c0,.49-.2.95-.55,1.29l-.78.73c-.55.52-.86,1.24-.86,2v.97c0,.8.66,1.46,1.46,1.46h16.08c.8,0,1.46-.66,1.46-1.46v-.97c0-.76-.31-1.48-.86-2l-.78-.74c-.35-.33-.56-.8-.56-1.29v-2.55c0-.53.01-1.4-.07-2.01-.45-3.21-2.98-5.74-6.2-6.2C10.24.02,9.87,0,9.5,0h0ZM6,18.26c.64,1.3,1.97,2.19,3.5,2.19s2.87-.9,3.5-2.19h-7.01,0Z"/>
  </g>
</svg>