<?xml version="1.0" encoding="UTF-8"?>
<svg id="Layer_2" data-name="Layer 2" xmlns="http://www.w3.org/2000/svg" viewBox="0 0 22.91 21.85">
  <defs>
    <style>
      .cls-1 {
        fill: #957df3;
        stroke-width: 0px;
      }
    </style>
  </defs>
  <g id="Layer_1-2" data-name="Layer 1">
    <path class="cls-1" d="M22.15,14.02c.42,0,.75.34.75.75h0v2.71c0,2.41-1.96,4.37-4.37,4.37H4.37c-2.41,0-4.37-1.96-4.37-4.37h0v-2.71c0-.42.34-.75.75-.75s.75.34.75.75h0v2.71c0,1.58,1.28,2.86,2.86,2.86h14.17c1.58,0,2.86-1.28,2.86-2.86h0v-2.71c0-.42.34-.75.75-.75ZM11.45,0c.4,0,.73.31.75.7v.05s0,12.43,0,12.43l3.25-3.04c.29-.27.74-.27,1.03,0l.04.04c.27.29.27.74,0,1.03l-.04.04-4.52,4.22s-.03.03-.04.04c0,0,0,0-.01,0,0,0-.02.01-.03.02,0,0-.01,0-.02.01,0,0-.01,0-.02.01,0,0-.01,0-.02.01,0,0-.02.01-.03.02h-.01s-.02.02-.03.02c0,0-.01,0-.02,0,0,0-.02,0-.03,0h-.02s-.01.01-.02.01c0,0-.02,0-.03,0-.02,0-.05.01-.08.02,0,0-.01,0-.02,0h-.05s-.05,0-.05,0h0s-.08,0-.11,0h-.04c-.23.04-.48-.02-.67-.19l-4.52-4.22c-.3-.28-.32-.76-.04-1.07s.76-.32,1.07-.04l3.56,3.32V.75c0-.42.34-.75.75-.75Z"/>
  </g>
</svg>