<?xml version="1.0" encoding="UTF-8"?>
<svg id="Layer_2" data-name="Layer 2" xmlns="http://www.w3.org/2000/svg" viewBox="0 0 14.73 14.73">
  <defs>
    <style>
      .cls-1 {
        fill: #b3b3b3;
      }

      .cls-1, .cls-2 {
        stroke-width: 0px;
      }

      .cls-2 {
        fill: #fff;
      }
    </style>
  </defs>
  <g id="Layer_1-2" data-name="Layer 1">
    <g>
      <circle class="cls-1" cx="7.36" cy="7.36" r="7.36"/>
      <path class="cls-2" d="M7.36,2.93c-2.33,0-4.23,1.82-4.23,4.06,0,2.24,1.89,4.06,4.23,4.06.53,0,1.03-.1,1.49-.27l2.25.98c.08.04.18.04.27,0,.18-.08.26-.29.19-.48l-.76-1.93c.5-.67.79-1.48.79-2.36,0-2.24-1.89-4.06-4.23-4.06h0ZM8.6,6.99c0-.31.24-.55.53-.55s.53.25.53.55c0,.31-.24.55-.53.55s-.53-.25-.53-.55ZM6.84,6.99c0-.31.24-.55.53-.55s.53.25.53.55c0,.31-.24.55-.53.55s-.53-.25-.53-.55ZM5.08,6.99c0-.31.24-.55.53-.55s.53.25.53.55c0,.31-.24.55-.53.55s-.53-.25-.53-.55Z"/>
    </g>
  </g>
</svg>