<?xml version="1.0" encoding="UTF-8"?>
<svg id="Layer_2" data-name="Layer 2" xmlns="http://www.w3.org/2000/svg" viewBox="0 0 20 20">
  <defs>
    <style>
      .cls-1 {
        fill: #8cd9c2;
      }

      .cls-1, .cls-2 {
        stroke-width: 0px;
      }

      .cls-2 {
        fill: none;
      }
    </style>
  </defs>
  <g id="Layer_1-2" data-name="Layer 1">
    <g>
      <path class="cls-1" d="M13.18,11.6c1.22-.95,1.96-2.39,2.02-3.93.05-1.55-.58-3.04-1.74-4.07-.94-.84-2.15-1.31-3.41-1.32-1.26-.01-2.48.43-3.44,1.25-.96.82-1.58,1.96-1.76,3.2-.14.91-.02,1.85.32,2.7.35.86.92,1.6,1.65,2.16.08.07.13.17.13.28v.47c-.32.08-.54.37-.54.69v.36c0,.4.32.72.72.72v1.08c0,.59.48,1.08,1.08,1.08h.08l.03.12h0c.19.77.89,1.32,1.69,1.32s1.49-.54,1.69-1.32l.03-.12h.08c.59,0,1.08-.48,1.08-1.08v-1.08c.4,0,.72-.32.72-.72v-.36c0-.33-.22-.61-.54-.69v-.46c0-.11.05-.22.13-.29h0ZM5.56,6.84c.15-.97.61-1.87,1.31-2.56.71-.69,1.62-1.12,2.6-1.24,1.31-.16,2.62.27,3.58,1.17.96.9,1.49,2.17,1.43,3.49-.06,1.32-.7,2.54-1.74,3.34-.26.21-.41.53-.41.86v.43h-1.08c0-2.11,0-2.9,0-3.59h.53c.5,0,.9-.4.9-.9s-.4-.9-.9-.9h-.35c-.5,0-.9.4-.9.9v.13s0,.05,0,.05h-1.09v-.18s0,0,0,0c0-.49-.4-.89-.9-.9h-.35c-.5,0-.9.4-.9.9s.4.9.9.9h.53c0,.68,0,1.48,0,3.59h-1.08v-.44c0-.33-.15-.64-.41-.85-.63-.48-1.12-1.13-1.42-1.87-.3-.74-.4-1.54-.28-2.33h0ZM9.46,12.33c0-2.11,0-2.9,0-3.59h1.09c0,.68,0,1.48,0,3.59h-1.08ZM11.26,8.03v-.18c0-.1.08-.18.18-.18h.35c.1,0,.18.08.18.18s-.08.18-.18.18h-.53ZM8.74,7.98v.05s-.53,0-.53,0c-.1,0-.18-.08-.18-.18s.08-.18.18-.18h.35c.1,0,.18.08.18.18v.13ZM10,17c-.45,0-.84-.29-.97-.72h1.95c-.13.43-.53.72-.97.72h0ZM12.15,15.2c0,.2-.16.36-.36.36h-3.59c-.2,0-.36-.16-.36-.36v-1.08h4.31v1.08ZM12.15,13.41h-5.02v-.36h5.74v.36s-.72,0-.72,0Z"/>
      <rect class="cls-2" width="20" height="20"/>
    </g>
  </g>
</svg>