<?xml version="1.0" encoding="UTF-8"?>
<svg id="Layer_2" data-name="Layer 2" xmlns="http://www.w3.org/2000/svg" viewBox="0 0 19 19">
  <defs>
    <style>
      .cls-1 {
        fill: #999;
        stroke-width: 0px;
      }
    </style>
  </defs>
  <g id="Layer_1-2" data-name="Layer 1">
    <g>
      <path class="cls-1" d="M17.29.29c.39-.39,1.02-.39,1.41,0s.39,1.02,0,1.41l-9,9c-.39.39-1.02.39-1.41,0s-.39-1.02,0-1.41L17.29.29Z"/>
      <path class="cls-1" d="M17,2h-4c-.55,0-1-.45-1-1s.45-1,1-1h5c.55,0,1,.45,1,1v5c0,.55-.45,1-1,1s-1-.45-1-1V2Z"/>
      <path class="cls-1" d="M15,10.5c0-.55.45-1,1-1s1,.45,1,1v5.63c0,1.59-1.29,2.87-2.87,2.87H2.87c-1.59,0-2.87-1.29-2.87-2.87V4.87c0-1.59,1.29-2.87,2.87-2.87q4.03,0,6.09,0c.55,0,1,.45,1,1s-.45,1-1,1q-2.06,0-6.09,0c-.48,0-.87.39-.87.87v11.25c0,.48.39.87.87.87h11.25c.48,0,.87-.39.87-.87v-5.63Z"/>
    </g>
  </g>
</svg>