<?xml version="1.0" encoding="UTF-8"?>
<svg id="Layer_2" data-name="Layer 2" xmlns="http://www.w3.org/2000/svg" viewBox="0 0 22 22">
  <defs>
    <style>
      .cls-1 {
        fill: #b3b3b3;
        fill-rule: evenodd;
      }

      .cls-1, .cls-2 {
        stroke-width: 0px;
      }

      .cls-2 {
        fill: none;
      }
    </style>
  </defs>
  <g id="Layer_1-2" data-name="Layer 1">
    <g>
      <path class="cls-1" d="M11,1.95C6,1.95,1.95,6,1.95,11s4.06,9.05,9.05,9.05,9.05-4.06,9.05-9.05S16,1.95,11,1.95ZM11,3.16c4.33,0,7.84,3.51,7.84,7.84s-3.51,7.84-7.84,7.84-7.84-3.51-7.84-7.84,3.51-7.84,7.84-7.84ZM11,6.18c-2.66,0-4.82,2.16-4.82,4.82s2.16,4.82,4.82,4.82,4.82-2.16,4.82-4.82-2.16-4.82-4.82-4.82ZM11,7.39c1.99,0,3.61,1.62,3.61,3.61s-1.62,3.61-3.61,3.61-3.61-1.62-3.61-3.61,1.62-3.61,3.61-3.61Z"/>
      <rect class="cls-2" width="22" height="22"/>
    </g>
  </g>
</svg>