<?xml version="1.0" encoding="UTF-8"?>
<svg id="Layer_2" data-name="Layer 2" xmlns="http://www.w3.org/2000/svg" viewBox="0 0 20 20">
  <defs>
    <style>
      .cls-1 {
        fill: #b3b3b3;
      }

      .cls-1, .cls-2 {
        stroke-width: 0px;
      }

      .cls-2 {
        fill: none;
      }
    </style>
  </defs>
  <g id="Layer_1-2" data-name="Layer 1">
    <g>
      <g>
        <path class="cls-1" d="M10,2.5c-4.14,0-7.5,3.36-7.5,7.5s3.36,7.5,7.5,7.5,7.5-3.36,7.5-7.5-3.36-7.5-7.5-7.5ZM10,16.47c-3.57,0-6.47-2.91-6.47-6.47s2.91-6.47,6.47-6.47,6.47,2.91,6.47,6.47-2.91,6.47-6.47,6.47Z"/>
        <path class="cls-1" d="M12.38,7.84l-3.24,3.24-1.52-1.52c-.21-.21-.52-.21-.73,0-.21.21-.21.52,0,.73l1.88,1.88c.09.09.22.16.36.16s.27-.05.36-.16l3.6-3.6c.21-.21.21-.52,0-.73-.21-.21-.54-.21-.73,0Z"/>
      </g>
      <rect class="cls-2" width="20" height="20"/>
    </g>
  </g>
</svg>