<?xml version="1.0" encoding="UTF-8"?>
<svg id="Layer_2" data-name="Layer 2" xmlns="http://www.w3.org/2000/svg" viewBox="0 0 24 24">
  <defs>
    <style>
      .cls-1 {
        fill: none;
      }

      .cls-1, .cls-2 {
        stroke-width: 0px;
      }

      .cls-2 {
        fill: #957df3;
      }
    </style>
  </defs>
  <g id="Layer_1-2" data-name="Layer 1">
    <g>
      <path class="cls-2" d="M4.23,22.39c-.44,0-.85-.17-1.16-.48-.31-.31-.49-.73-.49-1.17V4.35c0-.44.17-.85.48-1.17.34-.32.74-.48,1.17-.48h2.03l.05-.7c0-.22.18-.39.39-.39h7.04c.22,0,.39.17.39.39v.65l2.08.05c.44,0,.85.17,1.17.48.31.31.48.73.48,1.17v2.78l.27-.15c.07-.07.17-.11.28-.11s.2.04.28.11l1.46,1.46c.15.15.15.4,0,.55l-.69.69c.11.27.22.49.31.71.1.24.17.46.23.69l1.03.04c.22,0,.39.17.39.39v2.07c0,.22-.17.39-.39.39h-.98c-.11.27-.19.5-.28.72-.09.23-.2.44-.32.65l.7.75c.15.15.15.4,0,.55l-1.46,1.46c-.07.07-.17.11-.28.11s-.2-.04-.28-.11l-.19-.19-.09,2.82c0,.44-.17.85-.48,1.16-.31.31-.73.49-1.17.49H4.23ZM4.23,3.48c-.22,0-.43.08-.59.24-.18.19-.28.4-.28.63v16.39c0,.23.09.45.26.62.16.16.38.26.62.26h11.98c.23,0,.45-.09.62-.26.16-.16.26-.38.26-.62v-3.09h0c-.16,0-.25.04-.35.08-.24.1-.46.17-.69.23l-.04,1.03c0,.22-.18.39-.39.39h-2.07c-.22,0-.39-.17-.39-.39v-.98c-.27-.11-.5-.19-.72-.28-.24-.1-.45-.21-.65-.32l-.75.7c-.07.07-.17.11-.27.11s-.2-.04-.27-.11l-1.46-1.46c-.15-.15-.15-.4,0-.55l.69-.69c-.11-.27-.22-.49-.31-.71-.1-.24-.17-.46-.23-.69l-1.03-.04c-.22,0-.39-.17-.39-.39v-2.07c0-.22.18-.39.39-.39h.98c.11-.27.19-.5.28-.72.09-.23.2-.44.32-.65l-.7-.75c-.15-.15-.15-.4,0-.55l1.46-1.46c.07-.07.17-.11.28-.11s.2.04.27.11l.69.69c.27-.11.49-.22.71-.31.24-.1.46-.17.69-.23l.04-1.03c0-.22.17-.39.39-.39h2.07c.22,0,.39.17.39.39v.98c.27.11.5.19.72.28.1.04.19.08.28.13l.07-3.13c0-.23-.09-.45-.26-.61-.17-.17-.38-.26-.61-.26h-2.15c-.13.24-.26.44-.42.6-.31.31-.73.48-1.16.48h-4.53c-.44,0-.85-.17-1.16-.48-.16-.16-.29-.36-.37-.57l-2.19-.03ZM11.69,16.51c.08,0,.15.02.21.06.25.17.53.32.8.43.3.12.6.22.9.28.19.03.32.19.32.38v.89l1.24.05.05-.94c0-.18.13-.34.31-.38.29-.06.59-.15.87-.26.3-.13.57-.27.82-.43.07-.05.15-.08.24-.08.11,0,.22.05.3.14l.61.61.91-.84-.63-.7c-.13-.13-.15-.34-.05-.49.17-.26.32-.54.44-.83.12-.28.2-.56.26-.85.02-.2.19-.35.39-.35h.89l.05-1.24-.94-.05c-.18,0-.34-.13-.38-.31-.06-.3-.15-.59-.26-.87-.13-.31-.28-.59-.45-.85-.1-.15-.08-.36.05-.49l.63-.63-.84-.91-.69.62c-.08.08-.18.12-.28.12-.09,0-.17-.03-.24-.08-.25-.17-.52-.31-.8-.43-.28-.11-.56-.2-.85-.26-.2-.02-.35-.19-.35-.39v-.89l-1.24-.05-.05.94c0,.19-.13.35-.31.38-.3.06-.59.15-.87.26-.3.12-.57.27-.82.44-.07.05-.15.08-.24.08-.1,0-.2-.04-.28-.11l-.63-.63-.91.84.63.7c.13.13.15.34.05.49-.17.26-.32.54-.44.83-.12.28-.2.56-.26.85-.02.2-.19.35-.39.35h-.89l-.05,1.24.94.05c.18,0,.34.13.38.31.06.3.15.59.26.87.13.3.27.57.44.82.12.16.1.38-.03.51l-.63.63.84.91.68-.61c.07-.08.18-.13.29-.13ZM7.09,2.93v.11c.04.2.12.36.25.49.17.16.38.25.61.25h4.53c.23,0,.45-.09.61-.25.16-.16.25-.38.25-.61v-.48l-6.26-.05v.54ZM14.58,16.1c-.95,0-1.84-.37-2.51-1.04-.67-.67-1.04-1.56-1.04-2.51s.37-1.84,1.04-2.51c.69-.68,1.58-1.04,2.51-1.04.95,0,1.84.37,2.51,1.04.67.67,1.04,1.56,1.04,2.51s-.37,1.84-1.04,2.51c-.67.67-1.56,1.04-2.51,1.04ZM14.58,9.77c-.73,0-1.42.28-1.94.79-.55.55-.83,1.24-.83,1.98s.29,1.44.81,1.96c.52.52,1.22.81,1.96.81s1.44-.29,1.96-.81c.52-.52.81-1.22.81-1.96s-.29-1.44-.81-1.96c-.52-.52-1.22-.81-1.96-.81Z"/>
      <rect class="cls-1" width="24" height="24"/>
    </g>
  </g>
</svg>