<?xml version="1.0" encoding="UTF-8"?>
<svg id="Layer_2" data-name="Layer 2" xmlns="http://www.w3.org/2000/svg" viewBox="0 0 11 11">
  <defs>
    <style>
      .cls-1 {
        fill: none;
      }

      .cls-1, .cls-2 {
        stroke-width: 0px;
      }

      .cls-2 {
        fill: #3ac99a;
      }
    </style>
  </defs>
  <g id="Layer_1-2" data-name="Layer 1">
    <g>
      <path class="cls-2" d="M10.08,10.14c-.87-1.55-2.46-2.55-4.22-2.67.12-.8.32-1.5.62-2.11.13.02.31.03.53.03.68,0,1.67-.16,2.25-.99.9-1.28.39-3.63.37-3.73-.03-.13-.16-.22-.29-.21-.1.01-2.49.34-3.38,1.62-.79,1.13-.15,2.56.08,2.99-.1.19-.18.39-.26.6-.17-.18-.35-.35-.54-.5.02-.4,0-1.46-.84-1.96-.97-.58-2.62-.11-2.69-.09-.13.04-.21.17-.19.31.01.07.37,1.76,1.33,2.34.27.16.56.22.83.22.53,0,1.01-.23,1.26-.37.22.18.43.39.64.63-.11.38-.19.78-.25,1.21-1.83.06-3.51,1.07-4.41,2.68-.07.13-.03.29.1.36.13.07.29.03.36-.1.8-1.42,2.28-2.32,3.89-2.4-.01.16-.03.32-.04.48,0,.15.1.27.25.28,0,0,0,0,.01,0,.14,0,.26-.11.26-.25,0-.17.02-.34.04-.51,1.59.1,3.03,1,3.82,2.4.05.09.14.14.23.14.04,0,.09-.01.13-.03.13-.07.17-.23.1-.36ZM6.39,2.39c.61-.87,2.16-1.24,2.77-1.36.1.61.28,2.19-.33,3.07-.52.74-1.52.79-2.07.75.18-.28.37-.55.6-.79.1-.11.09-.28-.02-.37-.11-.1-.28-.09-.37.02-.23.25-.43.52-.61.8-.21-.52-.45-1.42.04-2.12ZM4.07,5.05c.13.07.26.14.39.23-.34.16-.88.32-1.34.04-.58-.35-.9-1.29-1.02-1.74.46-.1,1.44-.25,2.02.1h0c.42.25.54.75.58,1.13-.13-.08-.25-.15-.39-.22-.13-.07-.29-.02-.36.12-.07.13-.02.29.12.36Z"/>
      <rect class="cls-1" width="11" height="11"/>
    </g>
  </g>
</svg>