<?xml version="1.0" encoding="UTF-8"?>
<svg id="Layer_2" data-name="Layer 2" xmlns="http://www.w3.org/2000/svg" viewBox="0 0 18.49 18.49">
  <defs>
    <style>
      .cls-1 {
        fill: #6a5577;
        fill-rule: evenodd;
        stroke-width: 0px;
      }
    </style>
  </defs>
  <g id="Layer_1-2" data-name="Layer 1">
    <path class="cls-1" d="M13.04,13.98l4.32,4.32c.26.26.68.26.93,0,.26-.26.26-.68,0-.93l-4.32-4.32c1.17-1.38,1.88-3.17,1.88-5.12C15.85,3.55,12.3,0,7.93,0S0,3.55,0,7.93s3.55,7.93,7.93,7.93c1.95,0,3.74-.71,5.12-1.88ZM7.93,1.32c3.65,0,6.6,2.96,6.6,6.6s-2.96,6.6-6.6,6.6S1.32,11.57,1.32,7.93,4.28,1.32,7.93,1.32Z"/>
  </g>
</svg>