<?xml version="1.0" encoding="UTF-8"?>
<svg id="Layer_2" data-name="Layer 2" xmlns="http://www.w3.org/2000/svg" viewBox="0 0 24 24">
  <defs>
    <style>
      .cls-1 {
        fill: #957df3;
        fill-rule: evenodd;
      }

      .cls-1, .cls-2 {
        stroke-width: 0px;
      }

      .cls-2 {
        fill: none;
      }
    </style>
  </defs>
  <g id="Layer_1-2" data-name="Layer 1">
    <g>
      <g>
        <path class="cls-1" d="M21.79,17.48h-.45v-8.6c0-.57-.22-1.12-.63-1.54-.4-.42-.94-.66-1.51-.68h-1.03s-.02-.05-.03-.08c-.34-.8-.81-1.51-1.43-2.12s-1.33-1.1-2.12-1.43c-.82-.35-1.69-.53-2.59-.53s-1.77.18-2.59.53c-.79.34-1.5.81-2.11,1.43s-1.1,1.33-1.43,2.12c-.01.03-.02.06-.04.09h-1.04c-.57.02-1.11.26-1.51.68-.4.42-.63.97-.63,1.54v8.59h-.43c-.56,0-1.01.45-1.01,1.01,0,.8.31,1.56.88,2.13.57.57,1.32.88,2.13.88h15.56c.8,0,1.56-.32,2.14-.89.57-.57.88-1.32.88-2.13,0-.56-.45-1.01-1.01-1.01ZM12,3.19c2.55,0,4.74,1.61,5.6,3.87,0,.03.02.07.04.1.23.63.35,1.31.35,2.01,0,3.3-2.68,5.99-5.99,5.99s-5.99-2.68-5.99-5.99,2.68-5.99,5.99-5.99ZM4.8,7.34h.79c-.17.59-.25,1.2-.25,1.83,0,.9.18,1.77.52,2.59.34.8.81,1.51,1.43,2.12s1.33,1.1,2.12,1.43c.82.35,1.69.53,2.59.53s1.77-.18,2.59-.53c.8-.34,1.51-.81,2.12-1.43s1.1-1.33,1.43-2.12c.35-.82.53-1.69.53-2.59,0-.63-.09-1.24-.26-1.83h.77c.82.04,1.48.73,1.48,1.55v8.59H3.32v-8.59c0-.82.66-1.51,1.48-1.55ZM8.82,20.83v-1.36h6.35v1.36h-6.35ZM19.77,20.83h-3.92v-1.7c0-.19-.15-.34-.34-.34h-7.03c-.19,0-.34.15-.34.34v1.7h-3.94c-1.29,0-2.34-1.05-2.34-2.34,0-.19.15-.33.33-.33h19.57c.19,0,.33.15.33.33,0,1.29-1.05,2.34-2.34,2.34Z"/>
        <path class="cls-1" d="M6.9,11.34c.28.66.68,1.25,1.19,1.76.5.51,1.1.91,1.76,1.19.68.29,1.41.43,2.16.43s1.47-.15,2.16-.43c.66-.28,1.25-.68,1.76-1.19.51-.5.91-1.1,1.19-1.76.29-.69.43-1.41.43-2.16s-.15-1.47-.43-2.16c-.28-.66-.68-1.25-1.19-1.76-.5-.51-1.1-.91-1.76-1.19-.68-.29-1.41-.43-2.16-.43s-1.47.15-2.16.43c-.66.28-1.25.68-1.76,1.19-.51.5-.91,1.1-1.19,1.76-.29.68-.43,1.41-.43,2.16s.15,1.47.43,2.16ZM12,4.32c2.68,0,4.86,2.18,4.86,4.86s-2.18,4.86-4.86,4.86-4.86-2.18-4.86-4.86,2.18-4.86,4.86-4.86Z"/>
        <path class="cls-1" d="M11.15,12.35s.06.01.09.01c.15,0,.28-.1.33-.25l1.52-5.69c.05-.18-.06-.37-.24-.42-.18-.05-.37.06-.42.24l-1.52,5.69c-.05.18.06.37.24.42Z"/>
        <path class="cls-1" d="M10.04,11.23c.09,0,.17-.04.24-.1.13-.13.13-.34,0-.47l-1.56-1.56,1.56-1.56c.13-.13.13-.34,0-.47-.13-.13-.34-.13-.47,0l-1.8,1.8c-.13.13-.13.34,0,.47l1.8,1.8c.06.06.15.1.24.1Z"/>
        <path class="cls-1" d="M13.71,11.13c.06.06.15.1.24.1s.18-.04.23-.1l1.8-1.8c.06-.06.1-.15.1-.24,0-.09-.04-.18-.1-.24l-1.8-1.8c-.13-.13-.34-.13-.47,0-.13.13-.13.34,0,.47l1.56,1.56-1.56,1.56c-.13.13-.13.34,0,.47Z"/>
      </g>
      <rect class="cls-2" width="24" height="24"/>
    </g>
  </g>
</svg>