<?xml version="1.0" encoding="UTF-8"?>
<svg id="Layer_2" data-name="Layer 2" xmlns="http://www.w3.org/2000/svg" viewBox="0 0 13.18 21.01">
  <defs>
    <style>
      .cls-1 {
        fill: #b3b3b3;
        stroke-width: 0px;
      }
    </style>
  </defs>
  <g id="Layer_1-2" data-name="Layer 1">
    <g>
      <path class="cls-1" d="M6.42,20.85c-.25-.03-.49-.12-.7-.26l-4.89-3.32c-.43-.3-.69-.79-.69-1.31V5.05c0-.53.26-1.02.69-1.31L5.72.42c.26-.17.56-.27.87-.27s.61.09.87.27l4.89,3.32c.43.3.69.79.69,1.31v10.9c0,.53-.26,1.02-.69,1.31l-4.89,3.32c-.26.17-.56.27-.87.27h-.16ZM6.58,1.32s-.14.02-.2.07L1.5,4.7c-.11.08-.18.22-.18.35v10.9c0,.15.07.28.19.35l4.88,3.32c.06.04.13.07.21.07s.15-.03.22-.07l4.88-3.32c.11-.08.18-.22.18-.35V5.05c0-.15-.07-.28-.19-.35L6.81,1.38c-.08-.04-.15-.06-.21-.06h-.02Z"/>
      <path class="cls-1" d="M9.53,7.18c-.12,0-.23-.03-.33-.1l-2.41-1.63c-.07-.04-.13-.06-.2-.06-.07,0-.13.01-.2.04l-2.41,1.64c-.1.07-.21.1-.33.1-.19,0-.37-.1-.48-.25-.18-.27-.11-.63.15-.81l2.4-1.63c.26-.16.55-.25.86-.25s.6.09.85.25l2.41,1.64c.27.18.34.54.16.81-.12.16-.29.26-.48.26h0Z"/>
      <path class="cls-1" d="M9.53,11.09c-.12,0-.23-.03-.33-.1l-2.41-1.63c-.07-.04-.13-.06-.2-.06-.07,0-.13.01-.2.04l-2.41,1.64c-.09.06-.21.1-.32.1-.2,0-.38-.09-.48-.25-.18-.27-.11-.63.16-.81l2.4-1.63c.26-.16.55-.25.86-.25s.6.09.85.25l2.41,1.64c.27.18.34.54.16.81-.12.16-.29.26-.48.26h0Z"/>
    </g>
  </g>
</svg>