<?xml version="1.0" encoding="UTF-8"?>
<svg id="Layer_2" data-name="Layer 2" xmlns="http://www.w3.org/2000/svg" viewBox="0 0 25 25">
  <defs>
    <style>
      .cls-1 {
        fill: none;
      }

      .cls-1, .cls-2 {
        stroke-width: 0px;
      }

      .cls-2 {
        fill: #666;
      }
    </style>
  </defs>
  <g id="Layer_1-2" data-name="Layer 1">
    <g>
      <g>
        <path class="cls-2" d="M3.07,21.45c-1.02,0-1.85-.83-1.85-1.85V4.25c0-.39.32-.71.71-.71s.71.32.71.71v15.35c0,.24.2.44.44.44h20.01c.39,0,.71.32.71.71s-.32.71-.71.71H3.07Z"/>
        <path class="cls-2" d="M6.78,18.16c-.39,0-.71-.32-.71-.71v-5.43c0-.39.32-.71.71-.71s.71.32.71.71v5.43c0,.39-.32.71-.71.71Z"/>
        <path class="cls-2" d="M11.64,18.16c-.39,0-.71-.32-.71-.71v-8c0-.39.32-.71.71-.71s.71.32.71.71v8c0,.39-.32.71-.71.71Z"/>
        <path class="cls-2" d="M16.5,18.16c-.39,0-.71-.32-.71-.71v-3.72c0-.39.32-.71.71-.71s.71.32.71.71v3.72c0,.39-.32.71-.71.71Z"/>
        <path class="cls-2" d="M21.36,18.16c-.39,0-.71-.32-.71-.71V6.59c0-.39.32-.71.71-.71s.71.32.71.71v10.86c0,.39-.32.71-.71.71Z"/>
      </g>
      <rect class="cls-1" width="25" height="25"/>
    </g>
  </g>
</svg>