<?xml version="1.0" encoding="UTF-8"?>
<svg id="Layer_2" data-name="Layer 2" xmlns="http://www.w3.org/2000/svg" viewBox="0 0 11 11">
  <defs>
    <style>
      .cls-1 {
        fill: #ff8059;
      }

      .cls-1, .cls-2 {
        stroke-width: 0px;
      }

      .cls-2 {
        fill: none;
      }
    </style>
  </defs>
  <g id="Layer_1-2" data-name="Layer 1">
    <g>
      <path class="cls-1" d="M5.5.3c.97,0,1.84.39,2.48,1.03.63.63,1.03,1.51,1.03,2.48,0,.87-.32,1.67-.84,2.28l1.27,3.41c.05.13-.02.27-.14.31-.06.02-.12.02-.17,0h0s-1.38-.55-1.38-.55l-.47,1.28c-.05.13-.19.19-.31.14-.07-.03-.12-.08-.15-.15l-1.11-3.23c-.06,0-.13,0-.19,0s-.13,0-.19,0l-1.11,3.23c-.02.07-.07.12-.15.15-.13.05-.27-.02-.31-.14l-.47-1.28-1.38.55h0c-.05.02-.12.02-.17,0-.13-.05-.19-.19-.14-.31l1.27-3.41c-.53-.61-.84-1.41-.84-2.28,0-.97.39-1.84,1.03-2.48.63-.63,1.51-1.03,2.48-1.03h0ZM4.82,7.25c-.6-.12-1.15-.39-1.6-.78l-1,2.69,1.1-.44c.12-.05.27.01.32.14h0s0,0,0,0l.32.88.85-2.48h0ZM7.79,6.47c-.45.39-1,.66-1.6.78l.85,2.48.32-.88h0c.05-.13.19-.19.32-.14l1.1.44-1-2.69h0ZM5.73,1.41l.48,1.48h1.56c.13,0,.24.11.24.24,0,.08-.04.15-.1.2h0s-1.26.91-1.26.91l.48,1.48c.04.13-.03.26-.16.31-.08.03-.17,0-.23-.05l-1.24-.91-1.26.92c-.11.08-.26.06-.34-.05-.05-.07-.06-.15-.03-.22h0l.48-1.48-1.26-.91c-.11-.08-.13-.23-.05-.34.05-.07.13-.11.21-.1h1.54s.48-1.48.48-1.48c.04-.13.18-.2.31-.16.08.02.13.09.16.16h0ZM5.8,3.21l-.3-.93-.3.93c-.03.1-.12.17-.23.17h-.98s.8.57.8.57c.08.06.12.17.09.27l-.31.93.79-.58c.08-.06.2-.07.29,0l.79.58-.3-.93c-.04-.1,0-.22.09-.28l.8-.58h-.97c-.11,0-.21-.06-.24-.17h0ZM7.64,1.67c-.55-.55-1.3-.88-2.13-.88s-1.59.34-2.13.88c-.55.55-.88,1.3-.88,2.13s.34,1.59.88,2.13c.47.47,1.1.79,1.8.87h0c.11.01.22.02.33.02s.22,0,.33-.02h0c.7-.08,1.33-.39,1.8-.87.55-.55.88-1.3.88-2.13s-.34-1.59-.88-2.13h0Z"/>
      <rect class="cls-2" width="11" height="11"/>
    </g>
  </g>
</svg>