<?xml version="1.0" encoding="UTF-8"?>
<svg id="Layer_2" data-name="Layer 2" xmlns="http://www.w3.org/2000/svg" viewBox="0 0 27 27">
  <defs>
    <style>
      .cls-1 {
        fill: none;
      }

      .cls-1, .cls-2 {
        stroke-width: 0px;
      }

      .cls-2 {
        fill: #957df3;
      }
    </style>
  </defs>
  <g id="Layer_1-2" data-name="Layer 1">
    <g>
      <path class="cls-2" d="M18.23,15.88c1.82-1.41,2.92-3.55,3-5.85.08-2.3-.87-4.51-2.58-6.04-1.4-1.25-3.2-1.94-5.07-1.96-1.87-.02-3.69.64-5.11,1.86-1.42,1.22-2.35,2.91-2.62,4.76-.2,1.36-.04,2.74.48,4.02.52,1.27,1.36,2.38,2.45,3.22.12.1.19.26.19.42v.7c-.47.12-.8.54-.8,1.03v.53c0,.59.48,1.07,1.07,1.07v1.6c0,.88.72,1.6,1.6,1.6h.12l.04.18h0c.29,1.15,1.32,1.96,2.5,1.96s2.22-.81,2.5-1.96l.04-.18h.12c.88,0,1.6-.72,1.6-1.6v-1.6c.59,0,1.07-.48,1.07-1.07v-.53c0-.48-.33-.91-.8-1.03v-.68c0-.17.07-.33.2-.44h0ZM6.91,8.8c.22-1.45.9-2.79,1.95-3.81,1.05-1.02,2.4-1.67,3.86-1.85,1.94-.23,3.89.4,5.32,1.74,1.43,1.33,2.21,3.23,2.12,5.18-.09,1.96-1.03,3.77-2.58,4.97-.39.31-.61.78-.61,1.28v.65h-1.6c0-3.13,0-4.31,0-5.33h.79c.74,0,1.33-.6,1.33-1.33s-.6-1.33-1.33-1.33h-.52c-.74,0-1.33.6-1.33,1.33v.19s0,.07,0,.07h-1.62v-.27s0,0,0,0c0-.73-.6-1.33-1.33-1.33h-.52c-.74,0-1.33.6-1.33,1.33s.6,1.33,1.33,1.33h.79c0,1.02,0,2.2,0,5.33h-1.6v-.66c0-.49-.22-.96-.6-1.26-.94-.72-1.67-1.68-2.12-2.78-.44-1.1-.59-2.29-.41-3.47h0ZM12.7,16.97c0-3.13,0-4.31,0-5.33h1.61c0,1.02,0,2.2,0,5.33h-1.6ZM15.38,10.57v-.26c0-.15.12-.27.27-.27h.52c.15,0,.27.12.27.27s-.12.27-.27.27h-.79ZM11.63,10.5v.07s-.79,0-.79,0c-.15,0-.27-.12-.27-.27s.12-.27.27-.27h.52c.15,0,.27.12.27.27v.19ZM13.5,23.9c-.66,0-1.25-.43-1.45-1.07h2.9c-.2.63-.78,1.07-1.45,1.07h0ZM16.7,21.23c0,.29-.24.53-.53.53h-5.33c-.29,0-.53-.24-.53-.53v-1.6h6.4v1.6ZM16.7,18.57h-7.47v-.53h8.53v.53s-1.07,0-1.07,0Z"/>
      <rect class="cls-1" width="27" height="27"/>
    </g>
  </g>
</svg>