<?xml version="1.0" encoding="UTF-8"?>
<svg id="Layer_2" data-name="Layer 2" xmlns="http://www.w3.org/2000/svg" viewBox="0 0 13.62 13.62">
  <defs>
    <style>
      .cls-1 {
        fill: #3ac99a;
        stroke-width: 0px;
      }
    </style>
  </defs>
  <g id="Layer_1-2" data-name="Layer 1">
    <g>
      <path class="cls-1" d="M6.81,13.62C3.05,13.62,0,10.57,0,6.81,0,3.05,3.05,0,6.81,0c3.76,0,6.81,3.05,6.81,6.81h0c0,3.76-3.05,6.81-6.81,6.81ZM6.81.72C3.44.72.72,3.44.72,6.81s2.73,6.09,6.09,6.09,6.09-2.73,6.09-6.09h0c0-3.36-2.73-6.09-6.09-6.09Z"/>
      <ellipse class="cls-1" cx="4.7" cy="4.58" rx=".68" ry=".93"/>
      <ellipse class="cls-1" cx="8.92" cy="4.58" rx=".68" ry=".93"/>
      <path class="cls-1" d="M6.81,11.18c-2.11,0-3.84-1.65-3.84-3.68,0-.2.16-.36.36-.36s.36.16.36.36c0,1.63,1.4,2.96,3.12,2.96s3.12-1.33,3.12-2.96c0-.2.16-.36.36-.36s.36.16.36.36c0,2.03-1.72,3.68-3.84,3.68Z"/>
    </g>
  </g>
</svg>