<?xml version="1.0" encoding="UTF-8"?>
<svg id="Layer_2" data-name="Layer 2" xmlns="http://www.w3.org/2000/svg" viewBox="0 0 11 11">
  <defs>
    <style>
      .cls-1 {
        fill: #3786ee;
      }

      .cls-1, .cls-2 {
        stroke-width: 0px;
      }

      .cls-2 {
        fill: none;
      }
    </style>
  </defs>
  <g id="Layer_1-2" data-name="Layer 1">
    <g>
      <path class="cls-1" d="M2.79,10.23c-.76,0-1.39-.62-1.39-1.39v-.1S1.4,1.99,1.4,1.99c0-.68.55-1.23,1.23-1.23h5.74c.68,0,1.23.55,1.23,1.23v5.66c0,.23-.12.35-.27.35-.03,0-.12.01-.22.19-.1.17-.15.41-.15.66s.06.49.15.66c.1.18.19.19.22.19.15,0,.27.12.27.27s-.12.27-.27.27H2.79ZM2.79,8c-.47,0-.85.38-.85.85s.38.85.85.85h5.73c-.05-.3-.1-.57-.1-.85s.05-.55.15-.78l-5.78-.07ZM2.63,1.3c-.38,0-.69.31-.69.69v5.66c.31-.11.57-.19.85-.19h.16l.05-6.11-.37-.05ZM3.54,7.41l5.47.05.05-5.47c0-.38-.31-.69-.69-.69H3.54v6.11Z"/>
      <rect class="cls-2" width="11" height="11"/>
    </g>
  </g>
</svg>