<?xml version="1.0" encoding="UTF-8"?>
<svg id="Layer_2" data-name="Layer 2" xmlns="http://www.w3.org/2000/svg" viewBox="0 0 20 20">
  <defs>
    <style>
      .cls-1 {
        fill: none;
      }

      .cls-1, .cls-2 {
        stroke-width: 0px;
      }

      .cls-2 {
        fill: #c7c9d6;
      }
    </style>
  </defs>
  <g id="Layer_1-2" data-name="Layer 1">
    <g>
      <path class="cls-2" d="M5.72,1.98c-1.16,0-2.14.97-2.14,2.14v12.11c0,.98.8,1.78,1.78,1.78h10.51c.28,0,.53-.25.53-.53V5.72c0-.31-.23-.54-.53-.53-.51,0-1.07-.55-1.07-1.07s.55-1.07,1.07-1.07c.28,0,.53-.25.53-.53s-.25-.54-.53-.53H5.72ZM5.72,3.05h8.31c-.19.32-.3.68-.3,1.07s.11.75.3,1.07H5.72c-.51,0-1.07-.55-1.07-1.07s.55-1.07,1.07-1.07ZM4.66,5.96c.32.19.68.3,1.07.3h9.62v10.69H5.37c-.4,0-.71-.31-.71-.71V5.96ZM6.62,8.22c-.3,0-.53.24-.53.53s.24.53.53.53h6.77c.3,0,.53-.24.53-.53s-.24-.53-.53-.53h-6.77ZM6.62,11.07c-.3,0-.53.24-.53.53s.24.53.53.53h6.77c.3,0,.53-.24.53-.53s-.24-.53-.53-.53h-6.77ZM6.62,13.92c-.3,0-.53.24-.53.53s.24.53.53.53h6.77c.3,0,.53-.24.53-.53s-.24-.53-.53-.53h-6.77Z"/>
      <rect class="cls-1" width="20" height="20"/>
    </g>
  </g>
</svg>