<?xml version="1.0" encoding="UTF-8"?>
<svg id="Layer_2" data-name="Layer 2" xmlns="http://www.w3.org/2000/svg" viewBox="0 0 16.49 16.49">
  <defs>
    <style>
      .cls-1 {
        fill: #fff;
      }

      .cls-1, .cls-2 {
        stroke-width: 0px;
      }

      .cls-2 {
        fill: #6e5cb3;
      }
    </style>
  </defs>
  <g id="Layer_1-2" data-name="Layer 1">
    <g>
      <circle class="cls-2" cx="8.25" cy="8.25" r="8.25"/>
      <g>
        <path class="cls-1" d="M11.73,9.63c.05-.1.1-.2.14-.3.02-.05.04-.09.05-.14.04-.11.08-.22.11-.34.03-.11.06-.23.08-.35,0-.04.01-.07.02-.11,0-.03.01-.07.01-.1,0-.04.01-.09.01-.13,0-.06.01-.12.01-.18,0-.06,0-.11,0-.17s0-.11,0-.17c0-.06,0-.12-.01-.18,0-.04,0-.09-.01-.13,0-.02,0-.04,0-.06,0-.01,0-.03,0-.04,0-.04-.01-.08-.02-.11-.02-.12-.05-.23-.08-.35-.03-.11-.07-.23-.11-.34-.02-.05-.04-.09-.05-.14-.61-1.44-2.05-2.39-3.63-2.39s-3.02.95-3.63,2.39c-.02.05-.04.09-.05.14-.04.11-.08.22-.11.34-.03.12-.06.23-.08.35,0,.04-.01.07-.02.11,0,.01,0,.03,0,.04,0,.02,0,.04,0,.06,0,.04-.01.09-.01.13,0,.06-.01.12-.01.18,0,.06,0,.11,0,.17s0,.11,0,.17c0,.06,0,.12.01.18,0,.04,0,.09.01.13,0,.03,0,.07.01.1,0,.04.01.08.02.11.02.12.05.23.08.35.03.11.07.23.11.34.02.05.04.09.05.14.03.07.06.14.1.21.66,1.32,2.03,2.18,3.53,2.18s2.81-.82,3.48-2.09h0Z"/>
        <path class="cls-1" d="M12.79,6.31h0c-.1-2.3-1.91-4.14-4.13-4.14h-.83c-2.22,0-4.03,1.84-4.13,4.14h0c-.31.04-.6.19-.82.43-.28.28-.43.67-.43,1.07,0,.84.65,1.52,1.45,1.52h.22v-1.22c0-.1-.01-.2-.01-.3s0-.2.01-.3v-1.22c.11-2.05,1.73-3.69,3.72-3.69h.83c1.99,0,3.61,1.64,3.72,3.69v1.22c0,.1.01.2.01.3s0,.2-.01.3v1.22h.01v1.95c0,1.08-.84,1.95-1.86,1.95h-1.04v-.43c0-.12-.09-.22-.21-.22h-1.45c-.46,0-.83.39-.83.87s.37.87.83.87h1.45c.11,0,.21-.1.21-.22v-.43h1.04c1.26,0,2.28-1.07,2.28-2.39v-1.97c.31-.05.59-.2.82-.43.28-.28.43-.67.43-1.07,0-.77-.54-1.4-1.25-1.5h0Z"/>
      </g>
    </g>
  </g>
</svg>