<?xml version="1.0" encoding="UTF-8"?>
<svg id="Layer_2" data-name="Layer 2" xmlns="http://www.w3.org/2000/svg" viewBox="0 0 17 17">
  <defs>
    <style>
      .cls-1 {
        fill: none;
      }

      .cls-1, .cls-2 {
        stroke-width: 0px;
      }

      .cls-2 {
        fill: gray;
      }
    </style>
  </defs>
  <g id="Layer_1-2" data-name="Layer 1">
    <g>
      <g>
        <path class="cls-2" d="M8.5,6.87c-.16,0-.31-.06-.42-.17l-3.53-3.55c-.11-.1-.18-.25-.18-.41,0-.16.05-.31.16-.43.11-.12.27-.19.44-.19.15,0,.3.06.41.16l3.15,3.14,3.15-3.15c.15-.1.26-.13.36-.13.21,0,.4.11.51.29.12.2.11.45-.02.64l-3.6,3.61c-.11.11-.26.18-.42.18h0Z"/>
        <path class="cls-2" d="M4.97,14.88c-.16,0-.32-.07-.44-.19-.22-.24-.21-.62.03-.84l3.52-3.54c.11-.11.26-.18.42-.18.16,0,.32.07.43.18l3.56,3.56c.17.24.17.49.05.68-.11.18-.3.29-.51.29h0c-.11,0-.21-.03-.31-.09l-3.2-3.19-3.13,3.12c-.13.13-.28.18-.43.18Z"/>
      </g>
      <rect class="cls-1" width="17" height="17"/>
    </g>
  </g>
</svg>