<?xml version="1.0" encoding="UTF-8"?>
<svg id="Layer_2" data-name="Layer 2" xmlns="http://www.w3.org/2000/svg" viewBox="0 0 24 24">
  <defs>
    <style>
      .cls-1 {
        fill: none;
      }

      .cls-1, .cls-2 {
        stroke-width: 0px;
      }

      .cls-2 {
        fill: #957df3;
      }
    </style>
  </defs>
  <g id="Layer_1-2" data-name="Layer 1">
    <g>
      <path class="cls-2" d="M21.88,16.41l-4.68-4.68,4.13-4.13c.75-.75.75-1.98,0-2.73l-2.2-2.2c-.75-.75-1.98-.75-2.73,0l-4.13,4.13L7.6,2.12c-.15-.15-.38-.15-.53,0L2.67,6.52c-.15.15-.15.38,0,.53l4.68,4.68-3.03,3.03s0,0,0,0c-.04.04-.07.08-.08.14l-2.2,6.59c-.05.14,0,.28.09.38.07.07.17.11.27.11.04,0,.08,0,.12-.02l6.59-2.2c.05-.02.1-.05.14-.09,0,0,0,0,0,0l3.03-3.03,4.68,4.68c.07.07.17.11.27.11s.19-.04.27-.11l4.4-4.4c.15-.15.15-.38,0-.53h0ZM9.14,18.72l-.36-1.07c-.04-.11-.13-.2-.24-.24l-1.07-.36,9.19-9.19,1.67,1.67-9.19,9.19h0ZM5.78,20.09l-1.87-1.87.91-2.72,1.11.37.49,1.47s0,0,0,0c.02.05.04.09.08.13,0,0,0,0,.01.01.04.04.08.06.13.08,0,0,0,0,0,0l1.47.49.37,1.11-2.72.91h0ZM14.47,5.67l1.67,1.67-9.19,9.19-.36-1.07c-.04-.11-.13-.2-.24-.24l-1.07-.36L14.47,5.67h0ZM16.94,3.2c.46-.46,1.21-.46,1.67,0l2.2,2.2c.46.46.46,1.21,0,1.67l-1.93,1.93-3.86-3.86,1.93-1.93h0ZM6.76,10.08l1.38-1.38c.15-.15.15-.38,0-.53-.15-.15-.38-.15-.53,0l-1.38,1.38-1.12-1.12,1.38-1.38c.15-.15.15-.38,0-.53-.15-.15-.38-.15-.53,0l-1.38,1.38-1.12-1.12,3.86-3.86,4.41,4.41-3.86,3.86-1.12-1.12h0ZM3.65,19.02l1.34,1.34-2.01.67.67-2.01ZM17.22,20.54l-1.12-1.12,1.38-1.38c.15-.15.15-.38,0-.53-.15-.15-.38-.15-.53,0l-1.38,1.38-1.12-1.12,1.38-1.38c.15-.15.15-.38,0-.53-.15-.15-.38-.15-.53,0l-1.38,1.38-1.12-1.12,3.86-3.86,4.41,4.41-3.86,3.86h0Z"/>
      <rect class="cls-1" width="24" height="24"/>
    </g>
  </g>
</svg>