<?xml version="1.0" encoding="UTF-8"?>
<svg id="Layer_2" data-name="Layer 2" xmlns="http://www.w3.org/2000/svg" viewBox="0 0 18 18">
  <defs>
    <style>
      .cls-1 {
        fill: none;
      }

      .cls-1, .cls-2 {
        stroke-width: 0px;
      }

      .cls-2 {
        fill: gray;
      }
    </style>
  </defs>
  <g id="Layer_1-2" data-name="Layer 1">
    <g>
      <g>
        <path class="cls-2" d="M9,7.1c.72,0,1.37-.29,1.84-.76.47-.47.76-1.12.76-1.84s-.29-1.37-.76-1.84c-.47-.47-1.12-.76-1.84-.76s-1.37.29-1.84.76-.76,1.12-.76,1.84.29,1.37.76,1.84,1.12.76,1.84.76ZM7.66,3.17c.34-.34.82-.55,1.34-.55s1,.21,1.34.55c.34.34.55.82.55,1.34s-.21,1-.55,1.34c-.34.34-.82.55-1.34.55s-1-.21-1.34-.55c-.34-.34-.55-.82-.55-1.34s.21-1,.55-1.34Z"/>
        <path class="cls-2" d="M15.84,9.36c-.5-.5-1.2-.82-1.97-.82-.46,0-.89.11-1.27.31-.24.12-.46.28-.65.47-.13-.18-.27-.36-.43-.52-.65-.65-1.54-1.05-2.52-1.05s-1.87.4-2.52,1.05c-.16.16-.3.33-.43.51-.19-.18-.41-.34-.65-.47-.38-.2-.82-.31-1.27-.31-.77,0-1.46.31-1.97.82-.5.5-.82,1.2-.82,1.97v3.7h4.09v1.07h7.13v-1.07h4.09v-3.7c0-.77-.31-1.46-.82-1.97ZM5.69,9.99h0s0,.02,0,.02h0s0,.02,0,.02h0s0,.01,0,.01v.02s0,0,0,0h0s0,0,0,0v.02s-.01,0-.01,0h0s0,0,0,0v.02s0,0,0,0h0s0,.01,0,.01h0s0,.01,0,.01h0s0,.02,0,.02h0s0,0,0,0h0s0,.02,0,.02h0s0,.02,0,.02h0s0,0,0,0h0s0,.02,0,.02h0s0,.02,0,.02h0s0,.02,0,.02v.02s0,0,0,0v.02s0,.02,0,.02h0s0,.01,0,.01h0s0,.02,0,.02v.02s0,0,0,0h0s-.01.05-.01.05v.02s0,0,0,0h0s0,.01,0,.01h0s0,.03,0,.03h0s0,.01,0,.01h0s0,.03,0,.03v.02s0,.01,0,.01v.05s-.01.01-.01.01h0s0,.01,0,.01l-.02.12h0s-.01.07-.01.07h0s0,.01,0,.01h0s0,.02,0,.02h0s0,.03,0,.03h0s0,.02,0,.02v.06s0,0,0,0h0s0,.03,0,.03h0v.03h0s0,.02,0,.02h0s0,.03,0,.03h0s0,.03,0,.03h0s0,.04,0,.04h0v.05s0,.01,0,.01h0v.05h0v3.04h-3.38v-2.99c0-.57.23-1.09.61-1.47.38-.38.9-.61,1.47-.61.34,0,.66.08.95.23.24.12.45.29.62.49v.02ZM11.86,15.39h-5.72s0-4.1,0-4.1h0v-.02h0v-.03h0v-.02h0v-.04s0,0,0,0h0s0-.03,0-.03h0s0,0,0,0v-.03s0-.01,0-.01v-.02s0,0,0,0h0s0-.01,0-.01v-.02s0,0,0,0h0s0-.02,0-.02h0s0-.02,0-.02h0s0-.02,0-.02h0s0-.02,0-.02h0c.01-.11.03-.21.06-.32h0s.03-.1.03-.1h0s0-.02,0-.02h0s.01-.05.01-.05h0s0-.02,0-.02l.02-.05h0s0-.02,0-.02v-.02s0,0,0,0v-.02s.01,0,.01,0h0s0,0,0,0v-.02s.01,0,.01,0h0s0-.01,0-.01h0s0-.02,0-.02h0s0,0,0,0h0s0-.02,0-.02h0s0,0,0,0h0s0-.02,0-.02h0s0-.01,0-.01h0s0-.02,0-.02h0s0-.01,0-.01h0s0-.01,0-.01h0s0-.02,0-.02h0s0,0,0,0h0s0-.02,0-.02h0s0-.02,0-.02h0s.02-.05.02-.05c.14-.28.32-.53.54-.75.52-.52,1.23-.84,2.02-.84s1.5.32,2.02.84c.21.21.39.45.53.72l.04.07h0s.02.05.02.05h0s0,.03,0,.03h0s0,.01,0,.01h0s0,.02,0,.02h0s0,.02,0,.02h0s0,.02,0,.02h0s0,.02,0,.02h0s0,.02,0,.02h0s0,.01,0,.01h0s0,.02,0,.02h0s0,0,0,0h0s0,.02,0,.02h0s0,0,0,0h0s0,.02,0,.02h0s0,.02,0,.02h0s0,.02,0,.02h0s0,.03,0,.03h0s0,.02,0,.02h0s0,.02,0,.02h0c.02.06.03.12.05.17h0c.03.1.04.21.06.31h0s0,.01,0,.01h0s0,.03,0,.03h0s0,.01,0,.01h0s0,.02,0,.02h0s0,.01,0,.01h0v.02h0s0,.02,0,.02v.02s0,0,0,0h0s0,.01,0,.01h0s0,.02,0,.02h0s0,0,0,0v.02s0,0,0,0h0s0,.03,0,.03h0s0,.03,0,.03v.02h0v4.13ZM15.95,14.32h-3.38v-3.02h0v-.03h0v-.04h0v-.02h0v-.02h0v-.03h0v-.02h0s0-.02,0-.02v-.02s0,0,0,0h0s0-.02,0-.02h0s0-.02,0-.02h0s0-.03,0-.03h0s0-.08,0-.08v-.04s0-.01,0-.01h0s0-.02,0-.02h0s0-.01,0-.01v-.07s-.01,0-.01,0l-.02-.12h0s0-.01,0-.01v-.06s-.01-.01-.01-.01v-.02s-.01-.02-.01-.02h0s0,0,0,0v-.02s0,0,0,0h0s0-.02,0-.02v-.02s0,0,0,0v-.04s-.01,0-.01,0h0s0-.02,0-.02v-.02s0,0,0,0h0s0-.02,0-.02h0s0-.03,0-.03h0s0-.02,0-.02h0s0-.02,0-.02h0s0,0,0,0h0s0-.02,0-.02h0s0-.02,0-.02h0s0,0,0,0h0s0-.02,0-.02h0s0-.02,0-.02h0s0,0,0,0v-.03s-.01,0-.01,0h0s0-.01,0-.01v-.03s-.01,0-.01,0h0s0-.01,0-.01v-.02s-.01,0-.01,0h0s-.01-.03-.01-.03h0s-.02-.06-.02-.06c.17-.2.38-.37.62-.49.28-.15.61-.23.95-.23.57,0,1.09.23,1.47.61.38.38.61.9.61,1.47v2.99Z"/>
        <path class="cls-2" d="M4.13,8.22c.57,0,1.08-.23,1.45-.6.37-.37.6-.88.6-1.45s-.23-1.08-.6-1.45c-.37-.37-.89-.6-1.45-.6-.57,0-1.08.23-1.45.6-.37.37-.6.89-.6,1.45s.23,1.08.6,1.45.89.6,1.45.6ZM3.18,5.22c.24-.24.58-.39.95-.39s.71.15.95.39c.24.24.39.58.39.95s-.15.71-.39.95c-.24.24-.58.39-.95.39s-.71-.15-.95-.39c-.24-.24-.39-.58-.39-.95s.15-.71.39-.95Z"/>
        <path class="cls-2" d="M13.87,8.22c.57,0,1.08-.23,1.45-.6.37-.37.6-.88.6-1.45s-.23-1.08-.6-1.45c-.37-.37-.89-.6-1.45-.6-.57,0-1.08.23-1.45.6-.37.37-.6.89-.6,1.45s.23,1.08.6,1.45c.37.37.89.6,1.45.6ZM12.92,5.22c.24-.24.58-.39.95-.39s.71.15.95.39.39.58.39.95-.15.71-.39.95c-.24.24-.58.39-.95.39s-.71-.15-.95-.39c-.24-.24-.39-.58-.39-.95s.15-.71.39-.95Z"/>
      </g>
      <rect class="cls-1" width="18" height="18"/>
    </g>
  </g>
</svg>