<?xml version="1.0" encoding="UTF-8"?>
<svg id="Layer_2" data-name="Layer 2" xmlns="http://www.w3.org/2000/svg" viewBox="0 0 18 18">
  <defs>
    <style>
      .cls-1 {
        fill: none;
      }

      .cls-1, .cls-2 {
        stroke-width: 0px;
      }

      .cls-2 {
        fill: gray;
      }
    </style>
  </defs>
  <g id="Layer_1-2" data-name="Layer 1">
    <g>
      <path class="cls-2" d="M9.91,9l4.87-4.89c.26-.26.26-.67,0-.91-.26-.26-.67-.26-.91,0l-4.87,4.89L4.11,3.2c-.26-.26-.67-.26-.91,0-.26.26-.26.67,0,.91l4.87,4.89-4.87,4.89c-.26.26-.26.67,0,.91.13.13.3.2.46.2s.33-.07.46-.2l4.89-4.89,4.89,4.89c.13.13.3.2.46.2s.33-.07.46-.2c.26-.26.26-.67,0-.91l-4.89-4.89Z"/>
      <rect class="cls-1" width="18" height="18"/>
    </g>
  </g>
</svg>