<?xml version="1.0" encoding="UTF-8"?>
<svg id="Layer_2" data-name="Layer 2" xmlns="http://www.w3.org/2000/svg" viewBox="0 0 26 26">
  <defs>
    <style>
      .cls-1 {
        fill: none;
      }

      .cls-1, .cls-2 {
        stroke-width: 0px;
      }

      .cls-2 {
        fill: #6f2bff;
      }
    </style>
  </defs>
  <g id="Layer_1-2" data-name="Layer 1">
    <g>
      <path class="cls-2" d="M21.3,8.04h0s-3.03,0-3.03,0c-.83-.02-1.5-.69-1.5-1.53v-3l4.53,4.53ZM7.56,11.3h0c-.38,0-.68.3-.68.68s.3.68.68.68h10.89c.38,0,.68-.3.68-.68s-.3-.68-.68-.68H7.56s0,0,0,0h0ZM7.56,15.49h0c-.38,0-.68.3-.68.68s.3.68.68.68h10.89c.38,0,.68-.3.68-.68s-.3-.68-.68-.68H7.56s0,0,0,0ZM7.56,19.69h0c-.38,0-.68.3-.68.68s.3.68.68.68h10.89c.38,0,.68-.3.68-.68s-.3-.68-.68-.68H7.56s0,0,0,0ZM15.41,6.5h0c0,1.59,1.28,2.88,2.87,2.89h3.46v12.11c0,.83-.67,1.51-1.5,1.52H5.76c-.83-.02-1.5-.69-1.5-1.52V4.49c0-.83.67-1.51,1.5-1.52h9.65v3.54ZM5.77,1.61h0c-1.59.01-2.87,1.3-2.87,2.89v17c0,1.59,1.28,2.88,2.87,2.89h14.46c1.59-.01,2.87-1.3,2.87-2.89v-13.27c0-.19-.06-.38-.2-.52l-5.91-5.91c-.13-.13-.31-.2-.48-.2H5.77h0Z"/>
      <rect class="cls-1" width="26" height="26"/>
    </g>
  </g>
</svg>