<?xml version="1.0" encoding="UTF-8"?>
<svg id="Layer_2" data-name="Layer 2" xmlns="http://www.w3.org/2000/svg" viewBox="0 0 26 26">
  <defs>
    <style>
      .cls-1 {
        fill: none;
      }

      .cls-1, .cls-2 {
        stroke-width: 0px;
      }

      .cls-2 {
        fill: #6f2bff;
      }
    </style>
  </defs>
  <g id="Layer_1-2" data-name="Layer 1">
    <g>
      <path class="cls-2" d="M2.12,21.61c-.81,0-1.46-.66-1.46-1.46V7.46c0-.81.66-1.46,1.46-1.46h.35v-.03c0-.74.55-1.36,1.28-1.45.49-.06,1.27-.13,2.18-.13,2.14,0,5.08.4,7.07,2.28,1.99-1.88,4.93-2.28,7.07-2.28.91,0,1.69.07,2.18.13.73.09,1.28.72,1.28,1.45v.03h.35c.81,0,1.46.66,1.46,1.46v12.7c0,.81-.66,1.46-1.46,1.46H2.12ZM2.12,7.1c-.19,0-.35.16-.35.35v12.7c0,.19.16.35.35.35h9.41c-1.7-1.16-3.97-1.41-5.61-1.41-.76,0-1.42.05-1.83.1-.05,0-.1,0-.16,0-.36,0-.71-.13-.97-.37-.31-.28-.49-.67-.49-1.09V7.1h-.35ZM23.88,20.51c.19,0,.35-.16.35-.35V7.46c0-.19-.16-.35-.35-.35h-.35v10.64c0,.41-.18.81-.49,1.09-.27.24-.61.37-.97.37-.05,0-.1,0-.16,0-.42-.05-1.07-.1-1.83-.1-1.64,0-3.9.25-5.61,1.41h9.41ZM5.89,17.99c1.91,0,4.58.32,6.55,1.81V7.64c-1.68-1.76-4.46-2.15-6.5-2.15-.85,0-1.6.07-2.07.13-.17.02-.31.17-.31.35v11.77c0,.1.04.2.12.27.07.06.15.09.23.09.48-.05,1.16-.11,1.97-.11ZM20.04,5.49c-2.03,0-4.81.38-6.51,2.21l.03,12.1c1.97-1.49,4.62-1.81,6.53-1.81.65,0,1.31.04,1.95.11,0,0,0,0,.01,0,.12,0,.2-.03.26-.09.08-.07.12-.16.12-.27V5.97c0-.18-.13-.33-.31-.35-.47-.06-1.22-.13-2.08-.13Z"/>
      <rect class="cls-1" width="26" height="26"/>
    </g>
  </g>
</svg>