<?xml version="1.0" encoding="UTF-8"?>
<svg id="Layer_2" data-name="Layer 2" xmlns="http://www.w3.org/2000/svg" viewBox="0 0 20 20">
  <defs>
    <style>
      .cls-1 {
        fill: none;
      }

      .cls-1, .cls-2 {
        stroke-width: 0px;
      }

      .cls-2 {
        fill: #c7c9d6;
      }
    </style>
  </defs>
  <g id="Layer_1-2" data-name="Layer 1">
    <g>
      <g>
        <path class="cls-2" d="M10,2.27c-4.26,0-7.73,3.46-7.73,7.73s3.46,7.73,7.73,7.73,7.73-3.46,7.73-7.73-3.46-7.73-7.73-7.73ZM10,16.67c-3.68,0-6.67-2.99-6.67-6.67s2.99-6.67,6.67-6.67,6.67,2.99,6.67,6.67-2.99,6.67-6.67,6.67Z"/>
        <path class="cls-2" d="M12.46,7.77l-3.33,3.33-1.56-1.56c-.21-.21-.54-.21-.75,0-.21.21-.21.54,0,.75l1.94,1.94c.1.1.23.16.37.16s.28-.05.37-.16l3.71-3.71c.21-.21.21-.54,0-.75-.21-.21-.55-.21-.75,0Z"/>
      </g>
      <rect class="cls-1" width="20" height="20"/>
    </g>
  </g>
</svg>