<?xml version="1.0" encoding="UTF-8"?>
<svg id="Layer_2" data-name="Layer 2" xmlns="http://www.w3.org/2000/svg" viewBox="0 0 20 20">
  <defs>
    <style>
      .cls-1 {
        fill: #b3b3b3;
      }

      .cls-1, .cls-2 {
        stroke-width: 0px;
      }

      .cls-2 {
        fill: none;
      }
    </style>
  </defs>
  <g id="Layer_1-2" data-name="Layer 1">
    <g>
      <path class="cls-1" d="M5.41,17.79c-.89,0-1.62-.72-1.62-1.62V4.17c0-1.07.9-1.97,1.97-1.97h10.06c.2,0,.38.18.38.38s-.18.38-.37.38c-.59,0-1.22.62-1.22,1.21s.62,1.21,1.21,1.21c.22,0,.38.16.38.38v11.65c0,.2-.18.38-.38.38H5.41ZM4.55,16.18c0,.48.38.86.86.86h10.04V6.14H5.76c-.34,0-.68-.09-.98-.27l-.23-.13v10.44ZM5.76,2.96c-.59,0-1.21.62-1.21,1.21s.62,1.21,1.21,1.21h8.5l-.13-.23c-.18-.3-.27-.64-.27-.98s.09-.68.27-.98l.13-.23H5.76ZM6.65,14.79c-.21,0-.38-.17-.38-.38s.17-.38.38-.38h6.71c.21,0,.38.17.38.38s-.17.38-.38.38h-6.71ZM6.65,11.97c-.21,0-.38-.17-.38-.38s.17-.38.38-.38h6.71c.21,0,.38.17.38.38s-.17.38-.38.38h-6.71ZM6.65,9.14c-.21,0-.38-.17-.38-.38s.17-.38.38-.38h6.71c.21,0,.38.17.38.38s-.17.38-.38.38h-6.71Z"/>
      <rect class="cls-2" width="20" height="20"/>
    </g>
  </g>
</svg>