<?xml version="1.0" encoding="UTF-8"?>
<svg id="Layer_2" data-name="Layer 2" xmlns="http://www.w3.org/2000/svg" viewBox="0 0 19 19">
  <defs>
    <style>
      .cls-1 {
        fill: #fff;
        stroke-width: 0px;
      }
    </style>
  </defs>
  <g id="Layer_1-2" data-name="Layer 1">
    <g>
      <path class="cls-1" d="M18.14,3.95l-3.1-3.1c-.56-.55-1.29-.86-2.07-.86h-.19c-.2,0-.37.16-.37.37v4.02c0,.8-.66,1.46-1.46,1.46h-6.58c-.8,0-1.46-.66-1.46-1.46V.37c0-.2-.16-.37-.37-.37h-.37C.99,0,0,.99,0,2.19v14.62c0,1.21.99,2.19,2.19,2.19h.37c.2,0,.37-.16.37-.37v-7.67c0-.8.66-1.46,1.46-1.46h10.23c.8,0,1.46.66,1.46,1.46v7.67c0,.2.16.37.37.37h.37c1.21,0,2.19-.99,2.19-2.19V6.02c0-.77-.31-1.52-.86-2.07Z"/>
      <path class="cls-1" d="M4.38,11.33v7.31c0,.2.16.37.37.37h9.5c.2,0,.37-.16.37-.37v-7.31c0-.2-.16-.37-.37-.37H4.75c-.2,0-.37.16-.37.37Z"/>
      <path class="cls-1" d="M4.38.37v3.65c0,.2.16.37.37.37h5.85c.2,0,.37-.16.37-.37V.37c0-.2-.16-.37-.37-.37h-5.85c-.2,0-.37.16-.37.37Z"/>
    </g>
  </g>
</svg>