<?xml version="1.0" encoding="UTF-8"?>
<svg id="Layer_2" data-name="Layer 2" xmlns="http://www.w3.org/2000/svg" viewBox="0 0 26 26">
  <defs>
    <style>
      .cls-1 {
        fill: none;
      }

      .cls-1, .cls-2 {
        stroke-width: 0px;
      }

      .cls-2 {
        fill: #6f2bff;
      }
    </style>
  </defs>
  <g id="Layer_1-2" data-name="Layer 1">
    <g>
      <g>
        <path class="cls-2" d="M3.14,5.4c-.43,0-.77-.35-.77-.77s.35-.77.77-.77h19.72c.43,0,.77.35.77.77s-.35.77-.77.77H3.14Z"/>
        <path class="cls-2" d="M3.14,10.13c-.43,0-.77-.35-.77-.77s.35-.77.77-.77h19.72c.43,0,.77.35.77.77s-.35.77-.77.77H3.14Z"/>
        <path class="cls-2" d="M3.14,14.87c-.43,0-.77-.35-.77-.77s.35-.77.77-.77h7.21c.43,0,.77.35.77.77s-.35.77-.77.77H3.14Z"/>
        <path class="cls-2" d="M3.14,19.61c-.43,0-.77-.35-.77-.77s.35-.77.77-.77h7.04c.43,0,.77.35.77.77s-.35.77-.77.77H3.14Z"/>
        <path class="cls-2" d="M20.59,22.15c-.2,0-.4-.05-.58-.14l-2.08-1.05-2.08,1.05c-.18.09-.38.14-.58.14-.27,0-.53-.08-.75-.25-.39-.28-.58-.75-.51-1.23l.36-2.3-1.64-1.65c-.34-.34-.46-.84-.31-1.3.15-.46.54-.79,1.01-.87l2.3-.37,1.06-2.07c.22-.43.66-.7,1.14-.7s.92.27,1.14.7l1.06,2.07,2.3.37c.48.08.86.41,1.01.87.15.46.03.95-.31,1.3l-1.64,1.65.36,2.3c.07.48-.12.95-.51,1.23-.22.16-.48.25-.75.25ZM17.93,19.68c.2,0,.4.05.58.14l2.08,1.05-.36-2.3c-.06-.4.07-.81.36-1.1l1.64-1.65-2.3-.37c-.4-.07-.75-.32-.93-.68l-1.06-2.07-1.06,2.07c-.18.36-.53.61-.93.68l-2.3.37,1.64,1.65c.29.29.42.7.36,1.1l-.36,2.3,2.08-1.05c.18-.09.38-.14.58-.14Z"/>
      </g>
      <rect class="cls-1" y="0" width="26" height="26"/>
    </g>
  </g>
</svg>