<?xml version="1.0" encoding="UTF-8"?>
<svg id="Layer_2" data-name="Layer 2" xmlns="http://www.w3.org/2000/svg" viewBox="0 0 10 10">
  <defs>
    <style>
      .cls-1 {
        fill: none;
      }

      .cls-1, .cls-2 {
        stroke-width: 0px;
      }

      .cls-2 {
        fill: gray;
      }
    </style>
  </defs>
  <g id="Layer_1-2" data-name="Layer 1">
    <g>
      <path class="cls-2" d="M5,6.89c-.14,0-.27-.06-.37-.16l-2.7-2.72c-.09-.09-.15-.22-.16-.36,0-.14.05-.27.14-.38.1-.11.24-.17.39-.17.13,0,.26.05.36.14l2.37,2.36,2.36-2.36c.14-.09.23-.12.33-.12.18,0,.36.1.45.26.1.17.1.4-.01.57l-2.77,2.78c-.09.1-.23.16-.37.16h0Z"/>
      <rect class="cls-1" width="10" height="10"/>
    </g>
  </g>
</svg>