<?xml version="1.0" encoding="UTF-8"?>
<svg id="Layer_2" data-name="Layer 2" xmlns="http://www.w3.org/2000/svg" viewBox="0 0 327.7 62.58">
  <defs>
    <style>
      .cls-1 {
        fill: #3a4eeb;
      }

      .cls-1, .cls-2 {
        stroke-width: 0px;
      }

      .cls-2 {
        fill: #e0e0f4;
      }
    </style>
  </defs>
  <g id="Layer_1-2" data-name="Layer 1">
    <g>
      <g>
        <rect class="cls-2" y="0" width="6.59" height="41.17"/>
        <rect class="cls-1" y="41.17" width="6.59" height="21.41"/>
      </g>
      <g>
        <rect class="cls-2" x="8.92" y="0" width="6.59" height="41.17"/>
        <rect class="cls-1" x="8.92" y="41.17" width="6.59" height="21.41"/>
      </g>
      <g>
        <rect class="cls-2" x="17.84" y="0" width="6.59" height="41.17"/>
        <rect class="cls-1" x="17.84" y="41.17" width="6.59" height="21.41"/>
      </g>
      <g>
        <rect class="cls-2" x="26.76" y="0" width="6.59" height="41.17"/>
        <rect class="cls-1" x="26.76" y="41.17" width="6.59" height="21.41"/>
      </g>
      <g>
        <rect class="cls-2" x="35.68" y="0" width="6.59" height="41.17"/>
        <rect class="cls-1" x="35.68" y="41.17" width="6.59" height="21.41"/>
      </g>
      <g>
        <rect class="cls-2" x="44.6" y="0" width="6.59" height="41.17"/>
        <rect class="cls-1" x="44.6" y="41.17" width="6.59" height="21.41"/>
      </g>
      <g>
        <rect class="cls-2" x="53.52" y="0" width="6.59" height="41.17"/>
        <rect class="cls-1" x="53.52" y="41.17" width="6.59" height="21.41"/>
      </g>
      <g>
        <rect class="cls-2" x="62.44" y="0" width="6.59" height="41.17"/>
        <rect class="cls-1" x="62.44" y="41.17" width="6.59" height="21.41"/>
      </g>
      <g>
        <rect class="cls-2" x="71.36" y="0" width="6.59" height="41.17"/>
        <rect class="cls-1" x="71.36" y="41.17" width="6.59" height="21.41"/>
      </g>
      <g>
        <rect class="cls-2" x="80.28" y="0" width="6.59" height="41.17"/>
        <rect class="cls-1" x="80.28" y="41.17" width="6.59" height="21.41"/>
      </g>
      <g>
        <rect class="cls-2" x="89.2" y="0" width="6.59" height="41.17"/>
        <rect class="cls-1" x="89.2" y="41.17" width="6.59" height="21.41"/>
      </g>
      <g>
        <rect class="cls-2" x="98.12" y="0" width="6.59" height="41.17"/>
        <rect class="cls-1" x="98.12" y="41.17" width="6.59" height="21.41"/>
      </g>
      <g>
        <rect class="cls-2" x="107.04" y="0" width="6.59" height="41.17"/>
        <rect class="cls-1" x="107.04" y="41.17" width="6.59" height="21.41"/>
      </g>
      <g>
        <rect class="cls-2" x="115.96" y="0" width="6.59" height="41.17"/>
        <rect class="cls-1" x="115.96" y="41.17" width="6.59" height="21.41"/>
      </g>
      <g>
        <rect class="cls-2" x="124.88" y="0" width="6.59" height="41.17"/>
        <rect class="cls-1" x="124.88" y="41.17" width="6.59" height="21.41"/>
      </g>
      <g>
        <rect class="cls-2" x="133.8" y="0" width="6.59" height="41.17"/>
        <rect class="cls-1" x="133.8" y="41.17" width="6.59" height="21.41"/>
      </g>
      <g>
        <rect class="cls-2" x="142.72" y="0" width="6.59" height="41.17"/>
        <rect class="cls-1" x="142.72" y="41.17" width="6.59" height="21.41"/>
      </g>
      <g>
        <rect class="cls-2" x="151.64" y="0" width="6.59" height="41.17"/>
        <rect class="cls-1" x="151.64" y="41.17" width="6.59" height="21.41"/>
      </g>
      <g>
        <rect class="cls-2" x="160.56" y="0" width="6.59" height="41.17"/>
        <rect class="cls-1" x="160.56" y="41.17" width="6.59" height="21.41"/>
      </g>
      <g>
        <rect class="cls-2" x="169.48" y="0" width="6.59" height="41.17"/>
        <rect class="cls-1" x="169.48" y="41.17" width="6.59" height="21.41"/>
      </g>
      <g>
        <rect class="cls-2" x="178.4" y="0" width="6.59" height="41.17"/>
        <rect class="cls-1" x="178.4" y="41.17" width="6.59" height="21.41"/>
      </g>
      <g>
        <rect class="cls-2" x="187.32" y="0" width="6.59" height="41.17"/>
        <rect class="cls-1" x="187.32" y="41.17" width="6.59" height="21.41"/>
      </g>
      <g>
        <rect class="cls-2" x="196.24" y="0" width="6.59" height="41.17"/>
        <rect class="cls-1" x="196.24" y="41.17" width="6.59" height="21.41"/>
      </g>
      <g>
        <rect class="cls-2" x="205.16" y="0" width="6.59" height="41.17"/>
        <rect class="cls-1" x="205.16" y="41.17" width="6.59" height="21.41"/>
      </g>
      <g>
        <rect class="cls-2" x="214.08" y="0" width="6.59" height="41.17"/>
        <rect class="cls-1" x="214.08" y="41.17" width="6.59" height="21.41"/>
      </g>
      <g>
        <rect class="cls-2" x="222.99" y="0" width="6.59" height="41.17"/>
        <rect class="cls-1" x="222.99" y="41.17" width="6.59" height="21.41"/>
      </g>
      <g>
        <rect class="cls-2" x="231.91" y="0" width="6.59" height="41.17"/>
        <rect class="cls-1" x="231.91" y="41.17" width="6.59" height="21.41"/>
      </g>
      <g>
        <rect class="cls-2" x="240.83" y="0" width="6.59" height="41.17"/>
        <rect class="cls-1" x="240.83" y="41.17" width="6.59" height="21.41"/>
      </g>
      <g>
        <rect class="cls-2" x="249.75" y="0" width="6.59" height="41.17"/>
        <rect class="cls-1" x="249.75" y="41.17" width="6.59" height="21.41"/>
      </g>
      <g>
        <rect class="cls-2" x="258.67" y="0" width="6.59" height="41.17"/>
        <rect class="cls-1" x="258.67" y="41.17" width="6.59" height="21.41"/>
      </g>
      <g>
        <rect class="cls-2" x="267.59" y="0" width="6.59" height="41.17"/>
        <rect class="cls-1" x="267.59" y="41.17" width="6.59" height="21.41"/>
      </g>
      <g>
        <rect class="cls-2" x="276.51" y="0" width="6.59" height="41.17"/>
        <rect class="cls-1" x="276.51" y="41.17" width="6.59" height="21.41"/>
      </g>
      <g>
        <rect class="cls-2" x="285.43" y="0" width="6.59" height="41.17"/>
        <rect class="cls-1" x="285.43" y="41.17" width="6.59" height="21.41"/>
      </g>
      <g>
        <rect class="cls-2" x="294.35" y="0" width="6.59" height="41.17"/>
        <rect class="cls-1" x="294.35" y="41.17" width="6.59" height="21.41"/>
      </g>
      <g>
        <rect class="cls-2" x="303.27" y="0" width="6.59" height="41.17"/>
        <rect class="cls-1" x="303.27" y="41.17" width="6.59" height="21.41"/>
      </g>
      <g>
        <rect class="cls-2" x="312.19" y="0" width="6.59" height="41.17"/>
        <rect class="cls-1" x="312.19" y="41.17" width="6.59" height="21.41"/>
      </g>
      <g>
        <rect class="cls-2" x="321.11" y="0" width="6.59" height="41.17"/>
        <rect class="cls-1" x="321.11" y="41.17" width="6.59" height="21.41"/>
      </g>
    </g>
  </g>
</svg>