<?xml version="1.0" encoding="UTF-8"?>
<svg id="Layer_2" data-name="Layer 2" xmlns="http://www.w3.org/2000/svg" viewBox="0 0 25 25">
  <defs>
    <style>
      .cls-1 {
        fill: none;
      }

      .cls-1, .cls-2 {
        stroke-width: 0px;
      }

      .cls-2 {
        fill: #957df3;
      }
    </style>
  </defs>
  <g id="Layer_1-2" data-name="Layer 1">
    <g>
      <path class="cls-2" d="M12.42,21.96c-2.5,0-4.87-.96-6.66-2.71-3.65-3.74-3.65-9.59,0-13.33,1.81-1.86,4.24-2.88,6.83-2.88s4.87.96,6.66,2.71c3.65,3.74,3.65,9.59,0,13.33-1.81,1.86-4.24,2.88-6.83,2.88h0ZM11.91,4.16c-4.37.31-7.77,3.94-7.77,8.34,0,4.61,3.75,8.36,8.36,8.36,2.52,0,4.94-1.16,6.51-3.12l-6.84-4.76c-.16-.11-.25-.29-.25-.49V4.16ZM19.68,16.77c1.58-2.64,1.58-5.88.02-8.52l-6.16,4.25,6.14,4.27ZM13.09,11.38l5.94-4.1c-1.46-1.83-3.61-2.96-5.94-3.12v7.22Z"/>
      <rect class="cls-1" width="25" height="25"/>
    </g>
  </g>
</svg>