<?xml version="1.0" encoding="UTF-8"?>
<svg id="Layer_2" data-name="Layer 2" xmlns="http://www.w3.org/2000/svg" viewBox="0 0 22 22">
  <defs>
    <style>
      .cls-1 {
        fill: #b3b3b3;
      }

      .cls-1, .cls-2 {
        stroke-width: 0px;
      }

      .cls-2 {
        fill: none;
      }
    </style>
  </defs>
  <g id="Layer_1-2" data-name="Layer 1">
    <g>
      <g>
        <path class="cls-1" d="M10.83,21.35c-.25-.03-.49-.12-.7-.26l-4.88-3.32c-.43-.3-.69-.79-.69-1.31V5.55c0-.53.26-1.02.69-1.31L10.13.91c.26-.17.56-.27.87-.27s.61.09.87.27l4.89,3.32c.43.3.69.79.69,1.31v10.9c0,.53-.26,1.02-.69,1.31l-4.89,3.32c-.26.17-.56.27-.87.27h-.16ZM10.99,1.81s-.14.02-.2.07l-4.88,3.32c-.11.08-.18.22-.18.35v10.9c0,.15.07.28.19.35l4.88,3.32c.06.04.13.07.21.07s.15-.03.22-.07l4.88-3.32c.11-.08.18-.21.18-.35V5.55c0-.15-.07-.28-.19-.35l-4.88-3.32c-.08-.04-.15-.06-.21-.06h-.02Z"/>
        <path class="cls-1" d="M13.94,7.67c-.12,0-.23-.03-.32-.1l-2.41-1.63c-.07-.04-.13-.06-.2-.06-.07,0-.13.01-.2.04l-2.41,1.63c-.1.07-.21.1-.33.1-.19,0-.37-.1-.48-.25-.18-.27-.11-.63.15-.81l2.4-1.63c.26-.16.55-.25.86-.25s.6.09.85.25l2.41,1.64c.13.09.21.22.24.37.03.15,0,.31-.09.44-.12.16-.29.26-.48.26h0Z"/>
        <path class="cls-1" d="M13.94,11.58c-.12,0-.23-.03-.32-.1l-2.41-1.63c-.07-.04-.13-.06-.2-.06-.07,0-.13.01-.2.04l-2.41,1.64c-.1.06-.21.1-.32.1-.2,0-.38-.1-.48-.25-.18-.27-.11-.63.15-.81l2.4-1.63c.26-.16.55-.25.86-.25s.6.09.85.25l2.41,1.64c.13.09.21.22.24.37.03.15,0,.31-.09.44-.12.16-.29.26-.48.26h0Z"/>
      </g>
      <rect class="cls-2" width="22" height="22"/>
    </g>
  </g>
</svg>