<?xml version="1.0" encoding="UTF-8"?>
<svg id="Layer_2" data-name="Layer 2" xmlns="http://www.w3.org/2000/svg" viewBox="0 0 20 20">
  <defs>
    <style>
      .cls-1 {
        fill: #b3b3b3;
      }

      .cls-1, .cls-2 {
        stroke-width: 0px;
      }

      .cls-2 {
        fill: none;
      }
    </style>
  </defs>
  <g id="Layer_1-2" data-name="Layer 1">
    <g>
      <g>
        <path class="cls-1" d="M1.75,16.52c0,.95.78,1.73,1.73,1.73h3.88c.95,0,1.73-.78,1.73-1.73v-3.88c0-.95-.78-1.73-1.73-1.73h-3.88c-.95,0-1.73.78-1.73,1.73v3.88ZM2.64,12.64c0-.46.38-.84.84-.84h3.88c.46,0,.84.38.84.84v3.88c0,.46-.38.84-.84.84h-3.88c-.46,0-.84-.38-.84-.84v-3.88Z"/>
        <path class="cls-1" d="M7.09,2.03h-3.33c-.95,0-1.73.78-1.73,1.73v3.33c0,.95.78,1.73,1.73,1.73h3.33c.95,0,1.73-.78,1.73-1.73v-3.33c0-.95-.78-1.73-1.73-1.73ZM7.93,7.09c0,.46-.38.84-.84.84h-3.33c-.46,0-.84-.38-.84-.84v-3.33c0-.46.38-.84.84-.84h3.33c.46,0,.84.38.84.84v3.33Z"/>
        <path class="cls-1" d="M16.52,1.75h-3.88c-.95,0-1.73.78-1.73,1.73v3.88c0,.95.78,1.73,1.73,1.73h3.88c.95,0,1.73-.78,1.73-1.73v-3.88c0-.95-.78-1.73-1.73-1.73ZM17.36,7.36c0,.46-.38.84-.84.84h-3.88c-.46,0-.84-.38-.84-.84v-3.88c0-.46.38-.84.84-.84h3.88c.46,0,.84.38.84.84v3.88Z"/>
        <path class="cls-1" d="M15.98,12c-.53-.53-1.24-.82-1.99-.82s-1.46.29-1.99.82c-.53.53-.82,1.24-.82,1.99s.29,1.46.82,1.99c.53.53,1.24.82,1.99.82.6,0,1.17-.19,1.65-.53l1.58,1.58c.09.09.2.13.32.13s.23-.04.32-.13c.17-.17.17-.46,0-.63l-1.58-1.58c.35-.48.53-1.05.53-1.65,0-.75-.29-1.46-.82-1.99ZM15.35,15.35c-.75.75-1.97.75-2.71,0s-.75-1.97,0-2.71c.37-.37.87-.56,1.36-.56s.98.19,1.36.56c.75.75.75,1.97,0,2.71Z"/>
      </g>
      <rect class="cls-2" width="20" height="20"/>
    </g>
  </g>
</svg>