<?xml version="1.0" encoding="UTF-8"?>
<svg id="Layer_2" data-name="Layer 2" xmlns="http://www.w3.org/2000/svg" viewBox="0 0 11 11">
  <defs>
    <style>
      .cls-1 {
        fill: none;
      }

      .cls-1, .cls-2 {
        stroke-width: 0px;
      }

      .cls-2 {
        fill: #ff596d;
      }
    </style>
  </defs>
  <g id="Layer_1-2" data-name="Layer 1">
    <g>
      <g>
        <path class="cls-2" d="M2.11,1.87c-.53,0-.97.43-.97.97v.73c0,1.2.98,2.18,2.18,2.18h.25c.12.11.24.21.37.31.37.27.59.69.59,1.15v.73h-.48c-.4,0-.73.33-.73.73v.24c-.4,0-.73.33-.73.73v.48c0,.13.11.24.24.24h5.32c.13,0,.24-.11.24-.24v-.48c0-.4-.33-.73-.73-.73v-.24c0-.4-.33-.73-.73-.73h-.48v-.73c0-.45.22-.88.59-1.15.13-.09.25-.2.37-.3h.25c1.2,0,2.18-.98,2.18-2.18v-.73c0-.53-.43-.97-.97-.97h-.24v-.73h.24c.13,0,.24-.11.24-.24s-.11-.24-.24-.24H2.11c-.13,0-.24.11-.24.24s.11.24.24.24h.24v.73h-.24ZM1.63,3.56v-.73c0-.27.22-.48.48-.48h.24v.58c0,.84.28,1.65.78,2.31-.84-.1-1.5-.81-1.5-1.68h0ZM7.92,9.61v.24H3.08v-.24c0-.13.11-.24.24-.24h4.36c.13,0,.24.11.24.24ZM7.19,8.65v.24h-3.39v-.24c0-.13.11-.24.24-.24h2.9c.13,0,.24.11.24.24h0ZM8.89,2.35c.27,0,.48.22.48.48v.73c0,.87-.66,1.59-1.5,1.68.5-.66.77-1.47.77-2.31v-.58h.24ZM8.16,1.14v1.79c0,1.07-.52,2.09-1.39,2.72-.49.36-.79.93-.79,1.54v.73h-.97v-.73c0-.61-.29-1.18-.79-1.54-.87-.63-1.39-1.65-1.39-2.72v-1.79h5.32Z"/>
        <path class="cls-2" d="M4.54,3.65l-.14.83c-.01.09.02.18.1.23.07.05.17.06.25.02l.75-.39.75.39s.07.03.11.03c.05,0,.1-.02.14-.05.07-.05.11-.14.1-.23l-.14-.83.6-.59c.07-.06.09-.16.06-.25-.03-.09-.1-.15-.19-.16l-.84-.13-.38-.76c-.08-.16-.35-.16-.43,0l-.38.76-.84.13c-.09.01-.17.08-.19.16-.03.09,0,.18.06.25l.6.59h0ZM5.11,2.98c.08-.01.15-.06.18-.13l.22-.44.22.44c.04.07.1.12.18.13l.48.07-.35.34c-.06.06-.08.13-.07.21l.08.48-.43-.22s-.07-.03-.11-.03-.08,0-.11.03l-.43.22.08-.48c.01-.08-.01-.16-.07-.21l-.35-.34.48-.07h0Z"/>
      </g>
      <rect class="cls-1" width="11" height="11"/>
    </g>
  </g>
</svg>