<?xml version="1.0" encoding="UTF-8"?>
<svg id="Layer_2" data-name="Layer 2" xmlns="http://www.w3.org/2000/svg" viewBox="0 0 24 24">
  <defs>
    <style>
      .cls-1 {
        fill: none;
      }

      .cls-1, .cls-2 {
        stroke-width: 0px;
      }

      .cls-2 {
        fill: #957df3;
      }
    </style>
  </defs>
  <g id="Layer_1-2" data-name="Layer 1">
    <g>
      <path class="cls-2" d="M11,22.59c-.3-.03-.56-.17-.74-.41l-2.79-3.64-.21.07c-.55.32-1.18.49-1.82.49-1.3,0-2.51-.7-3.16-1.82-.48-.84-.61-1.82-.36-2.76.25-.94.85-1.73,1.69-2.21l2.53-1.46c.06-.04.14-.06.21-.06.04,0,.07,0,.11.01.04.01.08.03.12.06,2.77-2.07,4.77-4.51,5.71-6.88-.12-.39-.13-.78-.03-1.15.13-.5.45-.91.89-1.17.29-.17.62-.26.95-.26.17,0,.34.02.5.07.5.13.91.45,1.17.89l1.98,3.43c.37-.14.72-.23,1.07-.23.77,0,1.49.41,1.87,1.08.29.5.36,1.08.22,1.64-.14.53-.47.98-.93,1.27l1.97,3.5c.26.44.32.96.19,1.46-.13.5-.45.91-.89,1.17-.29.17-.62.26-.96.26-.56,0-1.08-.24-1.45-.66-.56-.09-1.13-.13-1.71-.13-2.15,0-4.58.53-7.03,1.55l2.6,3.52c.33.44.28,1.05-.13,1.42l-.77.7c-.2.18-.44.27-.7.27h-.1ZM8.21,18.06l2.7,3.62c.04.05.09.08.16.09,0,0,0,0,0,0,.08,0,.12-.02.16-.06l.77-.7c.09-.08.1-.21.03-.3l-2.57-3.38-1.26.72ZM4.03,13.02c-.65.37-1.11.98-1.31,1.71-.2.73-.1,1.49.28,2.13.5.87,1.44,1.41,2.44,1.41.49,0,.98-.13,1.4-.38l2.13-1.23-2.77-4.9-2.17,1.25ZM12.77,4.98c-1.1,2.32-3.07,4.6-5.68,6.58l2.49,4.4c2.66-1.07,5.25-1.65,7.56-1.65.35,0,.7.01,1.04.04l-5.37-9.45-.04.09ZM14.11,2.23c-.19,0-.38.05-.54.15-.25.15-.43.38-.51.66-.08.28-.04.57.11.83l6.17,10.69c.19.34.56.54.94.54.19,0,.38-.05.54-.15.52-.3.7-.97.4-1.49L15.06,2.78c-.14-.25-.38-.43-.66-.51-.09-.03-.19-.04-.29-.04ZM18.83,6.4c-.2,0-.4.05-.58.14l1.25,2.28c.34-.16.53-.43.61-.74.09-.34.04-.7-.13-1.01-.24-.41-.68-.66-1.15-.66Z"/>
      <rect class="cls-1" width="24" height="24"/>
    </g>
  </g>
</svg>