<?xml version="1.0" encoding="UTF-8"?>
<svg id="Layer_2" data-name="Layer 2" xmlns="http://www.w3.org/2000/svg" viewBox="0 0 21.62 18.69">
  <defs>
    <style>
      .cls-1 {
        fill: #6f2bff;
        stroke-width: 0px;
      }
    </style>
  </defs>
  <g id="Layer_1-2" data-name="Layer 1">
    <path class="cls-1" d="M2.21,0h3.92c.61,0,1.16.25,1.56.65.4.4.65.95.65,1.56v3.92c0,.61-.25,1.16-.65,1.56-.4.4-.95.65-1.56.65h-3.92c-.61,0-1.16-.25-1.56-.65-.4-.4-.65-.95-.65-1.56v-3.92c0-.61.25-1.16.65-1.56C1.05.25,1.6,0,2.21,0ZM2.05,14.76c-.2-.2-.2-.52,0-.72.2-.2.52-.2.72,0l.89.89,1.9-1.9c.2-.2.52-.2.72,0,.2.2.2.52,0,.72l-2.26,2.26c-.2.2-.52.2-.72,0l-1.25-1.25h0ZM11.41,15.03c-.28,0-.51-.23-.51-.51s.23-.51.51-.51h9.7c.28,0,.51.23.51.51s-.23.51-.51.51h-9.7ZM2.05,4.41c-.2-.2-.2-.52,0-.72.2-.2.52-.2.72,0l.89.89,1.9-1.9c.2-.2.52-.2.72,0,.2.2.2.52,0,.72l-2.26,2.26c-.2.2-.52.2-.72,0l-1.25-1.25h0ZM11.41,4.67c-.28,0-.51-.23-.51-.51s.23-.51.51-.51h9.7c.28,0,.51.23.51.51s-.23.51-.51.51h-9.7ZM2.21,10.35h3.92c.61,0,1.16.25,1.56.65.4.4.65.95.65,1.56v3.92c0,.61-.25,1.16-.65,1.56-.4.4-.95.65-1.56.65h-3.92c-.61,0-1.16-.25-1.56-.65C.25,17.64,0,17.08,0,16.48v-3.92C0,11.95.25,11.4.65,11c.4-.4.95-.65,1.56-.65ZM6.13,11.37h-3.92c-.33,0-.63.13-.84.35-.22.22-.35.52-.35.84v3.92c0,.33.14.63.35.84.22.22.52.35.84.35h3.92c.33,0,.63-.13.84-.35.22-.22.35-.52.35-.84v-3.92c0-.33-.13-.63-.35-.84-.22-.22-.52-.35-.84-.35ZM6.13,1.01h-3.92c-.33,0-.63.13-.84.35-.22.22-.35.52-.35.84v3.92c0,.33.14.63.35.84.22.22.52.35.84.35h3.92c.33,0,.63-.13.84-.35.22-.22.35-.52.35-.84v-3.92c0-.33-.13-.63-.35-.84-.22-.22-.52-.35-.84-.35Z"/>
  </g>
</svg>