<?xml version="1.0" encoding="UTF-8"?>
<svg id="Layer_1" data-name="Layer 1" xmlns="http://www.w3.org/2000/svg" viewBox="0 0 145.52 19.35">
  <defs>
    <style>
      .cls-1 {
        fill: #0e4c87;
      }

      .cls-1, .cls-2, .cls-3, .cls-4, .cls-5, .cls-6, .cls-7, .cls-8, .cls-9, .cls-10, .cls-11, .cls-12, .cls-13, .cls-14, .cls-15, .cls-16, .cls-17, .cls-18, .cls-19, .cls-20 {
        stroke-width: 0px;
      }

      .cls-2 {
        fill: #d6d824;
      }

      .cls-3 {
        fill: #a03081;
      }

      .cls-4 {
        fill: #219cd7;
      }

      .cls-5 {
        fill: #ac1e50;
      }

      .cls-6 {
        fill: #abc837;
      }

      .cls-7 {
        fill: #be2226;
      }

      .cls-8 {
        fill: #efb51c;
      }

      .cls-9 {
        fill: #6f2bff;
      }

      .cls-10 {
        fill: #269e48;
      }

      .cls-11 {
        fill: #e21468;
      }

      .cls-12 {
        fill: #5dc5b8;
      }

      .cls-13 {
        fill: #214082;
      }

      .cls-14 {
        fill: #9a1b40;
      }

      .cls-15 {
        fill: #e04625;
      }

      .cls-16 {
        fill: #084;
      }

      .cls-17 {
        fill: #fff;
      }

      .cls-18 {
        fill: #e86824;
      }

      .cls-19 {
        fill: #29ae89;
      }

      .cls-20 {
        fill: #e44c62;
      }
    </style>
  </defs>
  <g>
    <path class="cls-9" d="M38.64,7.12c-.67-.79-1.32-1.18-1.94-1.18-.28,0-.52.09-.74.27-.22.18-.33.39-.33.61,0,.41.34.89,1.03,1.45.72.57,1.23,1.02,1.53,1.35.3.33.54.72.73,1.17.18.45.27.93.27,1.46,0,1.04-.33,1.89-1,2.56-.66.67-1.52,1-2.56,1-.86,0-1.69-.31-2.51-.92v-2.79c.79.86,1.57,1.28,2.36,1.28.35,0,.65-.1.88-.29.24-.2.35-.43.35-.72,0-.42-.3-.89-.91-1.41-.96-.83-1.59-1.45-1.89-1.86-.3-.41-.52-.82-.67-1.23-.15-.41-.22-.83-.22-1.25,0-.91.32-1.66.95-2.25.64-.59,1.44-.89,2.43-.89.74,0,1.49.21,2.23.64v2.96Z"/>
    <path class="cls-9" d="M51.67,15.59h-2.43l-.57-9.65h-.04l-1.79,9.65h-1.81l-1.72-9.71h-.04l-.65,9.71h-2.43l1.22-11.79h3.21l1.3,7.77h.04l1.41-7.77h3.17l1.14,11.79Z"/>
    <path class="cls-9" d="M61.39,15.59h-2.49l-.39-1.84h-3.11l-.43,1.84h-2.49l3.37-11.79h2.59l2.96,11.79ZM58.14,11.84l-1.04-5.16h-.04s-1.2,5.16-1.2,5.16h2.28Z"/>
    <path class="cls-9" d="M70.11,15.59h-2.59l-2.05-5.84h-.04v5.84h-2.55V3.8h3.31c.66,0,1.32.13,1.98.4.66.26,1.13.68,1.41,1.24.28.56.42,1.14.42,1.75,0,.73-.16,1.33-.47,1.8-.31.47-.82.9-1.51,1.28l2.1,5.33ZM65.43,9.09c.83,0,1.35-.16,1.57-.49.22-.32.33-.73.33-1.23,0-1.13-.46-1.69-1.38-1.69h-.52v3.41Z"/>
    <path class="cls-9" d="M78.12,6.08h-2.29v9.51h-2.55V6.1h-2.34v-2.3h7.19v2.28Z"/>
    <path class="cls-9" d="M87.08,3.8l-2.63,6.57v5.22h-2.53v-5.2l-3.06-6.59h2.75l1.51,3.73,1.43-3.73h2.53Z"/>
    <path class="cls-9" d="M100.86,15.59h-2.49l-.39-1.84h-3.11l-.43,1.84h-2.49l3.37-11.79h2.59l2.96,11.79ZM97.61,11.84l-1.04-5.16h-.04s-1.2,5.16-1.2,5.16h2.28Z"/>
    <path class="cls-9" d="M110.01,10.83c0,.5-.12,1.15-.36,1.94-.24.79-.7,1.5-1.38,2.12-.68.62-1.49.93-2.42.93-2.89,0-4.33-2.08-4.33-6.23,0-1.96.38-3.47,1.13-4.51.75-1.04,1.82-1.56,3.21-1.56,2,0,3.2.98,3.62,2.94l-2.24.97c-.04-1.06-.52-1.59-1.44-1.59-.4,0-.72.12-.97.37s-.41.59-.49,1.03c-.08.44-.11,1.2-.11,2.27,0,1.26.04,2.12.12,2.59.08.47.25.82.5,1.06.25.24.58.35.98.35.94,0,1.45-.78,1.51-2.34h-1.57v-2.28h4.24v1.94Z"/>
    <path class="cls-9" d="M117.61,15.59h-5.88V3.8h5.51v2.28h-2.98v2.4h2.56v2.19h-2.56v2.61h3.35v2.32Z"/>
    <path class="cls-9" d="M127.53,15.59h-2.69l-3-7.44h-.04v7.44h-2.47V3.78h2.79l2.96,7.33h.05V3.78h2.42v11.81Z"/>
    <path class="cls-9" d="M136.22,6.08h-2.29v9.51h-2.55V6.1h-2.34v-2.3h7.19v2.28Z"/>
    <path class="cls-9" d="M142.82,7.12c-.67-.79-1.32-1.18-1.94-1.18-.28,0-.52.09-.74.27-.22.18-.33.39-.33.61,0,.41.34.89,1.03,1.45.72.57,1.23,1.02,1.53,1.35.3.33.54.72.73,1.17.18.45.27.93.27,1.46,0,1.04-.33,1.89-1,2.56-.66.67-1.52,1-2.56,1-.86,0-1.69-.31-2.51-.92v-2.79c.79.86,1.57,1.28,2.36,1.28.35,0,.65-.1.88-.29.24-.2.35-.43.35-.72,0-.42-.3-.89-.91-1.41-.96-.83-1.59-1.45-1.89-1.86-.3-.41-.52-.82-.67-1.23-.15-.41-.22-.83-.22-1.25,0-.91.32-1.66.95-2.25.64-.59,1.44-.89,2.43-.89.74,0,1.49.21,2.23.64v2.96Z"/>
  </g>
  <g>
    <path class="cls-9" d="M20.11,8.14h1.58v5.83h-1.58c-1.61,0-2.91-1.31-2.91-2.91h0c0-1.61,1.31-2.91,2.91-2.91Z" transform="translate(38.88 22.11) rotate(-180)"/>
    <path class="cls-9" d="M7.14,8.14h1.58v5.83h-1.58c-1.61,0-2.91-1.31-2.91-2.91h0c0-1.61,1.31-2.91,2.91-2.91Z"/>
    <path class="cls-9" d="M20.03,8.53h-.79c0-3.46-2.82-6.28-6.28-6.28s-6.28,2.82-6.28,6.28h-.79c0-3.9,3.17-7.07,7.07-7.07s7.07,3.17,7.07,7.07Z"/>
    <g>
      <polygon class="cls-5" points="6.63 10.43 6.63 6.7 9.79 8.56 6.63 10.43"/>
      <polygon class="cls-1" points="6.63 14.16 6.63 10.43 9.79 12.29 6.63 14.16"/>
      <polygon class="cls-14" points="9.79 8.56 9.79 4.83 12.95 6.7 9.79 8.56"/>
      <polygon class="cls-3" points="9.79 4.83 9.79 8.56 6.63 6.7 9.79 4.83"/>
      <polygon class="cls-19" points="9.79 8.56 9.79 12.29 6.63 10.43 9.79 8.56"/>
      <polygon class="cls-4" points="9.79 16.02 9.79 12.29 12.95 14.16 9.79 16.02"/>
      <polygon class="cls-13" points="9.79 12.29 9.79 16.02 6.63 14.16 9.79 12.29"/>
      <polygon class="cls-20" points="12.95 6.7 12.95 10.43 9.79 8.56 12.95 6.7"/>
      <polygon class="cls-11" points="12.95 10.43 12.95 6.7 16.11 8.56 12.95 10.43"/>
      <polygon class="cls-12" points="12.95 14.16 12.95 17.89 9.79 16.02 12.95 14.16"/>
      <polygon class="cls-10" points="12.95 17.89 12.95 14.16 16.11 16.02 12.95 17.89"/>
      <polygon class="cls-15" points="16.11 8.56 16.11 4.83 19.28 6.7 16.11 8.56"/>
      <polygon class="cls-7" points="16.11 4.83 16.11 8.56 12.95 6.7 16.11 4.83"/>
      <polygon class="cls-8" points="19.28 6.7 19.28 10.43 16.11 8.56 19.28 6.7"/>
      <polygon class="cls-18" points="16.11 12.29 16.11 8.56 19.28 10.43 16.11 12.29"/>
      <polygon class="cls-6" points="19.28 10.43 19.28 14.16 16.11 12.29 19.28 10.43"/>
      <polygon class="cls-2" points="16.11 16.02 16.11 12.29 19.28 14.16 16.11 16.02"/>
      <polygon class="cls-16" points="16.11 12.29 16.11 16.02 12.95 14.16 16.11 12.29"/>
    </g>
    <path class="cls-9" d="M5.05,7.26h1.58v5.83h-1.58c-1.61,0-2.91-1.31-2.91-2.91h0c0-1.61,1.31-2.91,2.91-2.91Z"/>
    <path class="cls-9" d="M6.6,5.89h0v2.74h-1.17v-1.57c0-.65.52-1.17,1.17-1.17Z"/>
    <rect class="cls-17" x="5.67" y="6.7" width=".7" height=".29"/>
    <path class="cls-17" d="M5.12,13.36c-.11,0-.19-.01-.2-.01-.07,0-.12-.08-.11-.15,0-.07.08-.12.15-.11,0,0,.51.06.76-.16.09-.08.14-.19.14-.34v-3.41c-.03-.08-.19-.42-.7-.42-.59,0-1.31.55-1.31,1.19v1.28c0,.07-.06.13-.13.13s-.13-.06-.13-.13v-1.28c0-.81.86-1.46,1.58-1.46.62,0,.9.41.96.62,0,.01,0,.02,0,.04v3.43c0,.22-.08.41-.23.54-.22.19-.55.23-.77.23Z"/>
    <path class="cls-9" d="M22.19,7.26h1.58v5.83h-1.58c-1.61,0-2.91-1.31-2.91-2.91h0c0-1.61,1.31-2.91,2.91-2.91Z" transform="translate(43.05 20.35) rotate(-180)"/>
    <path class="cls-9" d="M19.31,5.89h1.17v2.74h0c-.65,0-1.17-.52-1.17-1.17v-1.57h0Z" transform="translate(39.79 14.52) rotate(-180)"/>
    <rect class="cls-17" x="19.55" y="6.7" width=".7" height=".29" transform="translate(39.79 13.69) rotate(-180)"/>
    <path class="cls-17" d="M20.79,13.36c-.21,0-.54-.04-.77-.23-.15-.13-.23-.31-.23-.54v-3.43s0-.02,0-.04c.06-.22.34-.62.96-.62.71,0,1.58.65,1.58,1.46v1.28c0,.07-.06.13-.13.13s-.13-.06-.13-.13v-1.28c0-.64-.72-1.19-1.31-1.19-.51,0-.67.34-.7.42v3.41c0,.15.04.26.14.34.25.22.75.16.76.16.07,0,.14.04.15.11,0,.07-.04.14-.11.15,0,0-.09.01-.2.01Z"/>
    <path class="cls-9" d="M20.65,15.76h-.69v-.53h.62c.48-.27.77-.62.88-1.07.27-1.12-.68-2.48-.69-2.49l.43-.31c.04.06,1.1,1.56.77,2.92-.15.62-.56,1.11-1.21,1.45-.04.02-.08.03-.12.03Z"/>
  </g>
</svg>