<?xml version="1.0" encoding="UTF-8"?>
<svg id="Layer_1" data-name="Layer 1" xmlns="http://www.w3.org/2000/svg" viewBox="0 0 100 100">
  <defs>
    <style>
      .cls-1 {
        fill: #ed1c24;
      }

      .cls-1, .cls-2 {
        stroke-width: 0px;
      }

      .cls-2 {
        fill: #fff;
      }
    </style>
  </defs>
  <path class="cls-2" d="M100,50.01c0,27.62-22.44,50.02-50.06,49.99C22.32,99.97-.06,77.52,0,49.89.06,22.35,22.42.02,49.96,0c27.62-.02,50.04,22.39,50.04,50.01ZM89.95,49.97c-.03-22.1-17.91-39.95-39.99-39.92-22.09.03-39.95,17.91-39.92,39.99.03,22.09,17.91,39.95,39.99,39.92,22.09-.03,39.95-17.91,39.92-39.99Z"/>
  <path class="cls-1" d="M49.89,75c-13.75-.06-24.92-11.31-24.89-25.06.03-13.82,11.37-25.04,25.21-24.93,13.74.11,24.87,11.4,24.79,25.16-.08,13.74-11.35,24.89-25.11,24.84Z"/>
</svg>