<svg id="Layer_1" data-name="Layer 1" xmlns="http://www.w3.org/2000/svg" viewBox="0 0 100 100"><defs><style>.cls-1{fill:#727b8e;}</style></defs><path class="cls-1" d="M40.66,32.73V64.56H35.84v-27h-.18l-7.62,5v-4.6L36,32.73Z"/><path class="cls-1" d="M60.35,65.09a10.41,10.41,0,0,1-6.29-1.94,12,12,0,0,1-4-5.61,25.41,25.41,0,0,1-1.38-8.88,24.89,24.89,0,0,1,1.39-8.84,12,12,0,0,1,4-5.6,10.32,10.32,0,0,1,6.27-1.93,10.21,10.21,0,0,1,6.26,1.94,12.13,12.13,0,0,1,4,5.6A25,25,0,0,1,72,48.66a25,25,0,0,1-1.39,8.88,12,12,0,0,1-4,5.62A10.3,10.3,0,0,1,60.35,65.09Zm0-4.15a5.62,5.62,0,0,0,5.06-3.15q1.83-3.16,1.83-9.13A23.58,23.58,0,0,0,66.41,42,9.21,9.21,0,0,0,64,37.79a5.26,5.26,0,0,0-3.68-1.42,5.62,5.62,0,0,0-5.05,3.17q-1.83,3.16-1.85,9.12a23.6,23.6,0,0,0,.83,6.72,9.09,9.09,0,0,0,2.37,4.15A5.29,5.29,0,0,0,60.35,60.94Z"/><path class="cls-1" d="M7.22,26.28V11.77H2.83V34.08H25.15V29.71H10.43c.5-.62.74-1,1.06-1.32C15.93,24,20,19.13,24.91,15.46c26-19.26,63.26-3.3,67.64,28.77,3.27,24-14.43,46.28-38.37,48.36A42.84,42.84,0,0,1,7.24,51.71c0-.49-.06-1-.09-1.6H2.53c.34,3,.49,6,1.06,8.87a47.36,47.36,0,0,0,93,0c5.31-27-14-53.25-41.47-56C39.66,1.39,26.5,6.37,15.66,17.47,13,20.25,10.29,23.07,7.22,26.28Z"/></svg>