<svg id="Layer_1" data-name="Layer 1" xmlns="http://www.w3.org/2000/svg" viewBox="0 0 100 100"><defs><style>.cls-1{fill:#727b8e;}</style></defs><path class="cls-1" d="M40.66,32.73V64.56H35.84v-27h-.19l-7.61,5v-4.6L36,32.73Z"/><path class="cls-1" d="M60.35,65.09a10.34,10.34,0,0,1-6.29-1.94,12,12,0,0,1-4-5.61,25.37,25.37,0,0,1-1.38-8.88,24.93,24.93,0,0,1,1.39-8.84,12,12,0,0,1,4-5.6,10.31,10.31,0,0,1,6.27-1.92,10.2,10.2,0,0,1,6.26,1.93,12.13,12.13,0,0,1,4,5.6A25.06,25.06,0,0,1,72,48.66a25.11,25.11,0,0,1-1.39,8.89,12,12,0,0,1-4,5.61A10.26,10.26,0,0,1,60.35,65.09Zm0-4.15a5.62,5.62,0,0,0,5.06-3.15q1.83-3.16,1.83-9.13a23.51,23.51,0,0,0-.83-6.7A9.2,9.2,0,0,0,64,37.79a5.26,5.26,0,0,0-3.68-1.42,5.62,5.62,0,0,0-5.05,3.17c-1.22,2.11-1.84,5.16-1.85,9.12a23.63,23.63,0,0,0,.83,6.73,9.2,9.2,0,0,0,2.37,4.15A5.33,5.33,0,0,0,60.35,60.94Z"/><path class="cls-1" d="M92.78,26.28V11.77h4.39V34.08H74.85V29.71H89.57c-.5-.62-.74-1-1.06-1.32C84.07,24,80,19.13,75.09,15.46c-26-19.26-63.26-3.3-67.64,28.77-3.27,24,14.43,46.28,38.37,48.36A42.84,42.84,0,0,0,92.76,51.71c0-.49.06-1,.09-1.6h4.62c-.34,3-.49,6-1.06,8.87a47.36,47.36,0,0,1-93,0c-5.31-27,14-53.25,41.47-56C60.34,1.39,73.5,6.37,84.34,17.47,87.05,20.25,89.71,23.07,92.78,26.28Z"/></svg>