<?xml version="1.0" encoding="UTF-8"?>
<svg id="Layer_2" data-name="Layer 2" xmlns="http://www.w3.org/2000/svg" viewBox="0 0 17.23 17.15">
  <defs>
    <style>
      .cls-1 {
        fill: #3786ee;
      }

      .cls-1, .cls-2 {
        stroke-width: 0px;
      }

      .cls-2 {
        fill: #fff;
      }
    </style>
  </defs>
  <g id="Layer_1-2" data-name="Layer 1">
    <g>
      <circle class="cls-2" cx="8.96" cy="8.49" r="8.27"/>
      <g>
        <path class="cls-1" d="M8.58,17.15C3.84,17.15,0,13.31,0,8.58,0,3.84,3.84,0,8.58,0c4.74,0,8.58,3.84,8.58,8.58h0c0,4.73-3.84,8.57-8.58,8.58ZM8.58.9C4.34.9.9,4.34.9,8.58s3.44,7.67,7.67,7.67,7.67-3.44,7.67-7.67h0c0-4.24-3.44-7.67-7.67-7.67Z"/>
        <ellipse class="cls-1" cx="6" cy="5.77" rx=".85" ry="1.17"/>
        <ellipse class="cls-1" cx="11.3" cy="5.77" rx=".85" ry="1.17"/>
        <path class="cls-1" d="M12.71,11.71H4.44c-.25,0-.46-.21-.46-.46s.21-.46.46-.46h8.27c.25,0,.46.21.46.46s-.21.46-.46.46Z"/>
      </g>
    </g>
  </g>
</svg>