<?xml version="1.0" encoding="UTF-8"?>
<svg id="Layer_2" data-name="Layer 2" xmlns="http://www.w3.org/2000/svg" viewBox="0 0 13.71 13.71">
  <defs>
    <style>
      .cls-1 {
        fill: #ff596d;
        stroke-width: 0px;
      }
    </style>
  </defs>
  <g id="Layer_1-2" data-name="Layer 1">
    <g>
      <path class="cls-1" d="M6.85,13.71C3.07,13.71,0,10.64,0,6.85,0,3.07,3.07,0,6.85,0c3.79,0,6.85,3.07,6.85,6.85h0c0,3.78-3.07,6.85-6.85,6.85ZM6.85.72C3.47.72.72,3.47.72,6.85s2.75,6.13,6.13,6.13,6.13-2.75,6.13-6.13h0c0-3.39-2.75-6.13-6.13-6.13Z"/>
      <ellipse class="cls-1" cx="4.74" cy="4.61" rx=".68" ry=".93"/>
      <ellipse class="cls-1" cx="8.97" cy="4.61" rx=".68" ry=".93"/>
      <path class="cls-1" d="M10.71,10.16c0,.2-.16.36-.36.36s-.36-.16-.36-.36c0-1.64-1.41-2.98-3.14-2.98s-3.14,1.34-3.14,2.98c0,.2-.16.36-.36.36s-.36-.16-.36-.36c0-2.04,1.73-3.7,3.86-3.7s3.86,1.66,3.86,3.7Z"/>
    </g>
  </g>
</svg>