<?xml version="1.0" encoding="UTF-8"?>
<svg id="Layer_2" data-name="Layer 2" xmlns="http://www.w3.org/2000/svg" viewBox="0 0 13.52 14.49">
  <defs>
    <style>
      .cls-1 {
        fill: #999;
        stroke-width: 0px;
      }
    </style>
  </defs>
  <g id="Layer_1-2" data-name="Layer 1">
    <g>
      <path class="cls-1" d="M2.58,6.42c-.26,0-.47-.21-.47-.47s.21-.47.47-.47h5.75c.26,0,.47.21.47.47s-.21.47-.47.47H2.58Z"/>
      <path class="cls-1" d="M2.58,8.51c-.26,0-.47-.21-.47-.47s.21-.47.47-.47h5.75c.26,0,.47.21.47.47s-.21.47-.47.47H2.58Z"/>
      <path class="cls-1" d="M1.66,14.49c-.91,0-1.66-.74-1.66-1.66V3.63c0-.91.74-1.66,1.66-1.66h1.4c.12-.39.46-.68.87-.73.15-.71.78-1.24,1.52-1.24s1.38.54,1.53,1.25c.43.07.75.35.87.72h1.4c.91,0,1.66.74,1.66,1.66v4.73c1.48.23,2.61,1.53,2.61,3.05,0,1.67-1.36,3.05-3.02,3.08h-.02s-8.82,0-8.82,0ZM10.44,9.27c-1.18,0-2.14.96-2.14,2.14,0,.95.64,1.8,1.56,2.05.19.05.38.08.58.08,1.18,0,2.13-.96,2.13-2.13s-.96-2.14-2.13-2.14ZM1.66,2.92c-.39,0-.71.32-.71.71v9.21c0,.39.32.71.71.71h6.56c-.55-.57-.86-1.33-.86-2.13,0-.07,0-.14,0-.21H2.58c-.26,0-.47-.21-.47-.47s.21-.47.47-.47h5c.41-1.01,1.31-1.72,2.38-1.89V3.63c0-.39-.32-.71-.71-.71h-1.36c-.07.77-.72,1.37-1.5,1.37h-1.88c-.79,0-1.43-.6-1.5-1.37h-1.35ZM4.07,2.18c-.06,0-.12.05-.12.12v.48c0,.31.25.56.56.56h1.88c.31,0,.56-.25.56-.56v-.48c0-.06-.05-.12-.12-.12h-2.77ZM5.97,1.24c-.11-.17-.3-.29-.52-.29s-.41.11-.52.29h1.04Z"/>
      <path class="cls-1" d="M10.19,12.39c-.12,0-.23-.04-.31-.12l-.67-.59c-.09-.08-.15-.2-.16-.33,0-.13.03-.25.12-.34.09-.1.22-.16.35-.16.12,0,.23.04.31.12l.35.31.83-.74c.09-.08.2-.12.31-.12.14,0,.27.06.35.16.17.19.16.49-.04.67l-1.15,1.02c-.09.08-.2.12-.31.12Z"/>
    </g>
  </g>
</svg>