<?xml version="1.0" encoding="UTF-8"?>
<svg id="Layer_2" data-name="Layer 2" xmlns="http://www.w3.org/2000/svg" viewBox="0 0 36.25 36.25">
  <defs>
    <style>
      .cls-1 {
        fill: #6f2bff;
        stroke-width: 0px;
      }
    </style>
  </defs>
  <g id="Layer_1-2" data-name="Layer 1">
    <g>
      <path class="cls-1" d="M31.62,36.25H4.62c-2.55,0-4.62-2.07-4.62-4.62V4.62C0,2.07,2.07,0,4.62,0h27c2.55,0,4.62,2.07,4.62,4.62v27c0,2.55-2.07,4.62-4.62,4.62ZM4.62.75C2.49.75.75,2.49.75,4.62v27c0,2.14,1.74,3.88,3.88,3.88h27c2.14,0,3.88-1.74,3.88-3.88V4.62c0-2.14-1.74-3.88-3.88-3.88H4.62Z"/>
      <path class="cls-1" d="M29.83,20.34c.34-.37.54-.87.54-1.41,0-.99-.69-1.83-1.62-2.05v-3.71l.55-.3c.16-.08.26-.25.26-.43s-.1-.34-.26-.43l-12.17-6.49c-.14-.08-.32-.08-.46,0l-12.17,6.49c-.16.08-.26.25-.26.43s.1.34.26.43l5.42,2.89v6.41c0,2.09,3.06,3.73,6.97,3.73s6.97-1.64,6.97-3.73v-6.41l3.89-2.08v3.19c-.93.22-1.62,1.05-1.62,2.05,0,.54.21,1.03.54,1.41-1.28.46-2.17,1.47-2.17,2.65v4.87c0,1.61,1.67,2.92,3.73,2.92s3.73-1.31,3.73-2.92v-4.87c0-1.17-.89-2.18-2.17-2.65ZM22.91,22.18c0,1.33-2.41,2.76-6,2.76s-6-1.43-6-2.76v-5.89l5.77,3.08c.07.04.15.06.23.06s.16-.02.23-.06l5.77-3.08v5.89ZM27.13,12.93l-10.22,5.45-6-3.2v-.09h-.18l-4.95-2.64,11.13-5.94,10.22,5.45h-10.22v.97h10.22ZM28.26,17.8c.63,0,1.14.51,1.14,1.14s-.51,1.14-1.14,1.14-1.14-.51-1.14-1.14.51-1.14,1.14-1.14ZM25.51,22.99c0-.96.98-1.75,2.27-1.91v2.24h-2.27v-.32ZM31.02,27.86c0,1.07-1.24,1.95-2.76,1.95s-2.76-.87-2.76-1.95v-3.57h5.51v3.57ZM31.02,23.32h-2.27v-2.24c1.29.16,2.27.96,2.27,1.91v.32Z"/>
    </g>
  </g>
</svg>