<?xml version="1.0" encoding="UTF-8"?>
<svg id="Layer_2" data-name="Layer 2" xmlns="http://www.w3.org/2000/svg" viewBox="0 0 27 27">
  <defs>
    <style>
      .cls-1 {
        fill: none;
      }

      .cls-1, .cls-2 {
        stroke-width: 0px;
      }

      .cls-2 {
        fill: #957df3;
      }
    </style>
  </defs>
  <g id="Layer_1-2" data-name="Layer 1">
    <g>
      <rect class="cls-1" width="27" height="27"/>
      <g>
        <path class="cls-2" d="M18.3,23.49c-2.33,0-4.43-1.25-5.35-3.18l-.12.03h-.5c-1.97,0-3.42-.76-4.63-1.46l-.12.09c-2.01.87-3.33,1.11-4.08,1.15h0c-.33,0-.58-.17-.69-.43-.12-.28-.04-.59.18-.79l1.88-1.67c-1.23-1.34-1.91-3.25-1.91-5.3C2.95,7.29,7.16,3.51,12.33,3.51s9.38,3.78,9.38,8.42c0,.76-.2,1.69-.26,1.95,1.67.92,2.68,2.57,2.68,4.37,0,1.22-.39,2.37-1.1,3.24l1.02.85c.19.17.25.43.15.66-.09.23-.3.37-.53.37h0c-.52-.03-1.33-.18-2.56-.71-.78.42-1.66.83-2.82.83ZM18.3,13.83c-2.75,0-4.99,1.98-4.99,4.41s2.24,4.41,4.99,4.41c1.04,0,1.8-.4,2.56-.85.06-.04.14-.06.21-.06.06,0,.13.01.19.04l.21.11c.59.25,1.12.43,1.59.54l-.86-.64c-.08-.07-.13-.18-.14-.3,0-.11.04-.23.12-.31.72-.74,1.12-1.79,1.12-2.95,0-2.43-2.24-4.41-4.99-4.41ZM7.74,18.01c.07,0,.15.02.21.06,1.28.76,2.58,1.44,4.38,1.44h.22s.11.04.11.04c-.12-.44-.19-.88-.19-1.3,0-2.89,2.61-5.25,5.83-5.25.84,0,1.66.16,2.44.49.06-.56.14-1.15.14-1.56,0-4.18-3.83-7.58-8.55-7.58S3.79,7.74,3.79,11.93c0,1.99.69,3.8,1.93,5.08.08.08.12.19.12.31,0,.11-.05.22-.14.3l-1.98,1.76c.63-.16,1.78-.4,3.51-1.15l.33-.16c.06-.03.12-.04.18-.04Z"/>
        <path class="cls-2" d="M12.21,12.88c-.46,0-.95-.3-.95-.95s.49-.95.95-.95.95.3.95.95-.49.95-.95.95Z"/>
        <circle class="cls-2" cx="9.03" cy="11.93" r=".95"/>
        <path class="cls-2" d="M15.5,12.88c-.46,0-.95-.3-.95-.95s.49-.95.95-.95.95.3.95.95-.49.95-.95.95Z"/>
        <path class="cls-2" d="M18.34,20.18c-.23,0-.42-.19-.42-.42v-.86c0-.23.19-.42.42-.42.6,0,1.09-.49,1.09-1.09s-.49-1.09-1.09-1.09-1.09.49-1.09,1.09c0,.23-.19.42-.42.42s-.42-.19-.42-.42c0-1.06.86-1.92,1.92-1.92s1.92.86,1.92,1.92c0,.91-.65,1.71-1.55,1.89l.04.48c0,.23-.19.42-.42.42Z"/>
        <path class="cls-2" d="M18.32,21.46c-.29,0-.52-.23-.52-.52s.23-.52.52-.52.52.23.52.52c0,.29-.23.52-.52.52Z"/>
      </g>
    </g>
  </g>
</svg>