<?xml version="1.0" encoding="UTF-8"?>
<svg id="Layer_2" data-name="Layer 2" xmlns="http://www.w3.org/2000/svg" viewBox="0 0 9.96 9.96">
  <defs>
    <style>
      .cls-1 {
        fill: #fff;
        stroke-width: 0px;
      }
    </style>
  </defs>
  <g id="Layer_1-2" data-name="Layer 1">
    <path class="cls-1" d="M5.74,4.98L9.78.92c.22-.22.22-.56,0-.76-.22-.22-.56-.22-.76,0l-4.04,4.06L.92.16C.7-.05.36-.05.16.16-.05.38-.05.72.16.92l4.04,4.06L.16,9.04c-.22.22-.22.56,0,.76.11.11.25.16.38.16s.27-.05.38-.16l4.06-4.06,4.06,4.06c.11.11.25.16.38.16s.27-.05.38-.16c.22-.22.22-.56,0-.76l-4.06-4.06Z"/>
  </g>
</svg>