<?xml version="1.0" encoding="UTF-8"?>
<svg id="Layer_2" data-name="Layer 2" xmlns="http://www.w3.org/2000/svg" viewBox="0 0 14.07 14.07">
  <defs>
    <style>
      .cls-1 {
        fill: none;
      }

      .cls-1, .cls-2 {
        stroke-width: 0px;
      }

      .cls-2 {
        fill: gray;
      }
    </style>
  </defs>
  <g id="Layer_1-2" data-name="Layer 1">
    <g>
      <path class="cls-2" d="M10.07,7.04h0c0-.11-.05-.22-.13-.31L4.75,1.56c-.16-.17-.44-.18-.61-.02-.17.16-.18.44-.02.61,0,0,.01.01.02.02l4.88,4.89-4.92,4.92c-.12.2-.06.47.15.59.14.09.32.08.46-.01l5.22-5.22c.08-.08.13-.19.13-.31Z"/>
      <rect class="cls-1" x="0" y="0" width="14.07" height="14.07" transform="translate(14.07 0) rotate(90)"/>
    </g>
  </g>
</svg>