<?xml version="1.0" encoding="UTF-8"?>
<svg id="Layer_2" data-name="Layer 2" xmlns="http://www.w3.org/2000/svg" viewBox="0 0 11.91 12.76">
  <defs>
    <style>
      .cls-1 {
        fill: #6f2bff;
        stroke-width: 0px;
      }
    </style>
  </defs>
  <g id="Layer_1-2" data-name="Layer 1">
    <g>
      <path class="cls-1" d="M0,6.38h0c0-.13.05-.26.14-.35L6.05.16c.19-.2.5-.21.7-.02.2.19.21.5.02.7,0,0-.02.02-.02.02L1.2,6.41l5.59,5.59c.14.23.07.54-.17.68-.16.1-.37.09-.53-.01L.15,6.73c-.09-.09-.15-.22-.15-.35Z"/>
      <path class="cls-1" d="M5,6.38h0c0-.13.05-.26.14-.35L11.05.16c.19-.2.5-.21.7-.02.2.19.21.5.02.7,0,0-.02.02-.02.02l-5.55,5.56,5.59,5.59c.14.23.07.54-.17.68-.16.1-.37.09-.53-.01l-5.94-5.94c-.09-.09-.15-.22-.15-.35Z"/>
    </g>
  </g>
</svg>