<?xml version="1.0" encoding="UTF-8"?>
<svg id="Layer_2" data-name="Layer 2" xmlns="http://www.w3.org/2000/svg" viewBox="0 0 26 26">
  <defs>
    <style>
      .cls-1 {
        fill: none;
      }

      .cls-1, .cls-2 {
        stroke-width: 0px;
      }

      .cls-2 {
        fill: #6f2bff;
      }
    </style>
  </defs>
  <g id="Layer_1-2" data-name="Layer 1">
    <g>
      <g>
        <path class="cls-2" d="M22.82,11.4h-.94v-5.04c0-1.29-1.04-2.33-2.33-2.33H3.68c-1.29,0-2.33,1.04-2.33,2.33v13.04c0,.53.29,1.02.75,1.27.22.12.46.18.7.18.27,0,.53-.07.77-.22l3.93-2.46c.17-.11.37-.17.57-.17h2.89v.12c0,1.01.82,1.83,1.83,1.83h6.92c.11,0,.21.03.3.09l2.78,1.74c.2.12.42.18.64.18.2,0,.4-.05.59-.15.39-.21.62-.62.62-1.06v-7.53c0-1.01-.82-1.83-1.83-1.83h0ZM10.96,13.23v3.5h-2.89c-.44,0-.87.12-1.24.36l-3.93,2.46c-.08.05-.14.03-.18,0-.04-.02-.09-.07-.09-.16V6.36c0-.58.48-1.06,1.06-1.06h15.87c.58,0,1.06.48,1.06,1.06v5.04h-7.82c-1.01,0-1.83.82-1.83,1.83h0ZM23.38,20.65l-2.69-1.69c-.29-.18-.63-.28-.98-.28h-6.92c-.31,0-.56-.25-.56-.56v-4.89c0-.31.25-.56.56-.56h10.03c.31,0,.56.25.56.56v7.42Z"/>
        <path class="cls-2" d="M15.24,15.68c0,1.13-1.69,1.13-1.69,0s1.69-1.13,1.69,0"/>
        <path class="cls-2" d="M18.65,15.68c0,1.13-1.69,1.13-1.69,0s1.69-1.13,1.69,0"/>
        <path class="cls-2" d="M22.07,15.68c0,1.13-1.69,1.13-1.69,0s1.69-1.13,1.69,0"/>
      </g>
      <rect class="cls-1" width="26" height="26"/>
    </g>
  </g>
</svg>