<?xml version="1.0" encoding="UTF-8"?>
<svg id="Layer_2" data-name="Layer 2" xmlns="http://www.w3.org/2000/svg" viewBox="0 0 13.9 14.91">
  <defs>
    <style>
      .cls-1 {
        fill: #3786ee;
        stroke-width: 0px;
      }
    </style>
  </defs>
  <g id="Layer_1-2" data-name="Layer 1">
    <g>
      <path class="cls-1" d="M2.65,6.6c-.26,0-.48-.22-.48-.48s.22-.48.48-.48h5.92c.26,0,.48.22.48.48s-.22.48-.48.48H2.65Z"/>
      <path class="cls-1" d="M2.65,8.75c-.26,0-.48-.22-.48-.48s.22-.48.48-.48h5.92c.26,0,.48.22.48.48s-.22.48-.48.48H2.65Z"/>
      <path class="cls-1" d="M1.7,14.91c-.94,0-1.7-.76-1.7-1.7V3.73c0-.94.76-1.7,1.7-1.7h1.45c.13-.4.47-.7.9-.75.15-.73.8-1.28,1.56-1.28s1.42.55,1.56,1.29c.44.07.77.36.89.74h1.45c.94,0,1.7.76,1.7,1.7v4.88c1.53.23,2.69,1.57,2.69,3.13,0,1.71-1.39,3.13-3.11,3.16h-.02s-9.08,0-9.08,0ZM10.74,9.53c-1.22,0-2.21.99-2.21,2.21,0,.98.66,1.85,1.61,2.12.19.06.39.08.6.08,1.22,0,2.21-.99,2.21-2.21s-.99-2.21-2.2-2.21ZM1.7,2.99c-.41,0-.74.33-.74.74v9.48c0,.41.33.74.74.74h6.77c-.57-.58-.9-1.37-.9-2.21,0-.07,0-.15,0-.22H2.65c-.26,0-.48-.22-.48-.48s.22-.48.48-.48h5.15c.42-1.04,1.35-1.78,2.46-1.95V3.73c0-.41-.33-.74-.74-.74h-1.4c-.07.79-.73,1.41-1.54,1.41h-1.94c-.81,0-1.47-.62-1.54-1.41h-1.4ZM4.18,2.23c-.07,0-.13.06-.13.13v.5c0,.32.26.58.58.58h1.94c.32,0,.58-.26.58-.58v-.5c0-.07-.06-.13-.13-.13h-2.85ZM6.16,1.27c-.11-.19-.32-.31-.55-.31s-.44.12-.55.31h1.1Z"/>
      <path class="cls-1" d="M10.49,12.74c-.12,0-.23-.04-.32-.12l-.69-.61c-.1-.09-.15-.2-.16-.33s.04-.25.12-.35c.09-.1.22-.16.36-.16.12,0,.23.04.32.12l.37.33.86-.76c.09-.08.2-.12.32-.12.14,0,.27.06.36.16.18.2.16.5-.04.68l-1.18,1.05c-.09.08-.2.12-.32.12Z"/>
    </g>
  </g>
</svg>