<?xml version="1.0" encoding="UTF-8"?>
<svg id="Layer_2" data-name="Layer 2" xmlns="http://www.w3.org/2000/svg" viewBox="0 0 27 27">
  <defs>
    <style>
      .cls-1 {
        fill: none;
      }

      .cls-1, .cls-2 {
        stroke-width: 0px;
      }

      .cls-2 {
        fill: #957df3;
      }
    </style>
  </defs>
  <g id="Layer_1-2" data-name="Layer 1">
    <g>
      <path class="cls-2" d="M18.99,23.65c-1.28,0-2.48-.5-3.38-1.4-.9-.9-1.4-2.11-1.4-3.38s.5-2.48,1.4-3.38c.9-.9,2.11-1.4,3.38-1.4s2.48.5,3.38,1.4c.9.9,1.4,2.11,1.4,3.38s-.5,2.48-1.4,3.38c-.9.9-2.11,1.4-3.38,1.4ZM18.99,15.33c-.94,0-1.83.37-2.5,1.04-.67.67-1.04,1.56-1.04,2.5s.37,1.83,1.04,2.5c.67.67,1.56,1.04,2.5,1.04s1.83-.37,2.5-1.04c.67-.67,1.04-1.56,1.04-2.5s-.37-1.83-1.04-2.5c-.67-.67-1.56-1.04-2.5-1.04h0ZM5.09,23.65c-.5,0-.97-.2-1.32-.55-.35-.35-.55-.82-.55-1.32v-5.83c0-.5.2-.97.55-1.32.35-.35.82-.55,1.32-.55h5.83c.5,0,.97.2,1.32.55.35.35.55.82.55,1.32v5.83c0,.5-.2.97-.55,1.32-.35.35-.82.55-1.32.55h-5.83ZM5.09,15.33c-.16,0-.32.07-.44.18-.12.12-.18.27-.18.44v5.83c0,.16.07.32.18.44.12.12.27.18.44.18h5.83c.16,0,.32-.07.44-.18.12-.12.18-.27.18-.44v-5.83c0-.16-.07-.32-.18-.44s-.27-.18-.44-.18h-5.83ZM16.07,12.92c-.5,0-.97-.2-1.32-.55-.35-.35-.55-.82-.55-1.32v-5.83c0-.5.2-.97.55-1.32.35-.35.82-.55,1.32-.55h5.83c.5,0,.97.2,1.32.55.35.35.55.82.55,1.32v5.83c0,.5-.2.97-.55,1.32-.35.35-.82.55-1.32.55h-5.83ZM16.07,4.6c-.16,0-.32.07-.44.18s-.18.27-.18.44v5.83c0,.16.07.32.18.44.12.12.27.18.44.18h5.83c.16,0,.32-.07.44-.18.12-.12.18-.27.18-.44v-5.83c0-.16-.07-.32-.18-.44s-.27-.18-.44-.18h-5.83ZM5.09,12.92c-.5,0-.97-.2-1.32-.55-.35-.35-.55-.82-.55-1.32v-5.83c0-.5.19-.97.55-1.32.35-.35.82-.55,1.32-.55h5.83c.5,0,.97.2,1.32.55.35.35.55.82.55,1.32v5.83c0,.5-.2.97-.55,1.32-.35.35-.82.55-1.32.55h-5.83ZM5.09,4.6c-.16,0-.32.07-.44.18-.12.12-.18.27-.18.44v5.83c0,.16.07.32.18.44.12.12.27.18.44.18h5.83c.16,0,.32-.07.44-.18.12-.12.18-.27.18-.44v-5.83c0-.16-.07-.32-.18-.44s-.27-.18-.44-.18h-5.83Z"/>
      <rect class="cls-1" width="27" height="27"/>
    </g>
  </g>
</svg>