<?xml version="1.0" encoding="UTF-8"?>
<svg id="Layer_2" data-name="Layer 2" xmlns="http://www.w3.org/2000/svg" viewBox="0 0 15 15">
  <defs>
    <style>
      .cls-1 {
        fill: none;
      }

      .cls-1, .cls-2 {
        stroke-width: 0px;
      }

      .cls-2 {
        fill: #fff;
      }
    </style>
  </defs>
  <g id="Layer_1-2" data-name="Layer 1">
    <g>
      <path class="cls-2" d="M2.88.83c.2.08.57.19.89.37,1.88,1.06,3.75,2.14,5.62,3.21,1.02.59,2.05,1.17,3.07,1.76.17.1.34.21.5.33.72.58.72,1.41.01,1.99-.11.09-.24.18-.36.25-2.98,1.71-5.95,3.42-8.93,5.12-.12.07-.25.13-.38.18-.93.35-1.68-.12-1.78-1.11-.02-.16-.02-.33-.02-.49,0-3.3,0-6.59,0-9.89,0-.34.06-.69.17-1.01.16-.46.54-.68,1.21-.71Z"/>
      <rect class="cls-1" width="15" height="15"/>
    </g>
  </g>
</svg>