<?xml version="1.0" encoding="UTF-8"?>
<svg id="Layer_2" data-name="Layer 2" xmlns="http://www.w3.org/2000/svg" viewBox="0 0 27 27">
  <defs>
    <style>
      .cls-1 {
        fill: none;
      }

      .cls-1, .cls-2 {
        stroke-width: 0px;
      }

      .cls-2 {
        fill: #ff596d;
      }
    </style>
  </defs>
  <g id="Layer_1-2" data-name="Layer 1">
    <g>
      <rect class="cls-1" width="27" height="27"/>
      <g>
        <path class="cls-2" d="M6.99,23.66c-2.25,0-4.09-1.83-4.09-4.09V7.43c0-2.25,1.83-4.09,4.09-4.09h6.94c2.25,0,4.09,1.83,4.09,4.09v.87c0,.34-.28.62-.62.62s-.62-.28-.62-.62v-.87c0-1.57-1.28-2.85-2.85-2.85h-6.94c-1.57,0-2.85,1.28-2.85,2.85v12.15c0,1.57,1.28,2.85,2.85,2.85h6.94c1.57,0,2.85-1.28,2.85-2.85v-.87c0-.34.28-.62.62-.62s.62.28.62.62v.87c0,2.25-1.83,4.09-4.09,4.09h-6.94Z"/>
        <path class="cls-2" d="M20.87,16.72c-.16,0-.32-.06-.44-.18s-.18-.27-.18-.44.06-.32.18-.44l1.55-1.55h-10.65c-.34,0-.62-.28-.62-.62s.28-.62.62-.62h10.65l-1.55-1.55c-.12-.12-.18-.27-.18-.44s.06-.32.18-.44.27-.18.44-.18.32.06.44.18l2.6,2.6c.11.11.17.25.18.41,0,.12-.02.19-.05.26-.03.08-.08.14-.13.2l-2.6,2.6c-.12.12-.27.18-.44.18Z"/>
      </g>
    </g>
  </g>
</svg>