<?xml version="1.0" encoding="UTF-8"?>
<svg id="Layer_2" data-name="Layer 2" xmlns="http://www.w3.org/2000/svg" viewBox="0 0 16.63 16.63">
  <defs>
    <style>
      .cls-1 {
        fill: gray;
        stroke-width: 0px;
      }
    </style>
  </defs>
  <g id="Layer_1-2" data-name="Layer 1">
    <path class="cls-1" d="M16.46,15.63h0l-3.97-3.97c1.08-1.27,1.68-2.89,1.68-4.58,0-1.88-.75-3.68-2.08-5.01C10.76.75,8.96,0,7.08,0h0c-1.88,0-3.68.75-5.01,2.07C.75,3.4,0,5.2,0,7.08s.75,3.68,2.07,5.01c1.33,1.33,3.13,2.08,5.01,2.08,1.68,0,3.3-.6,4.58-1.68l3.97,3.97c.23.23.6.23.83,0,.23-.23.23-.6,0-.83ZM7.08,12.99c-1.57,0-3.07-.62-4.18-1.73-1.11-1.11-1.73-2.61-1.73-4.18s.62-3.07,1.73-4.18c1.11-1.11,2.61-1.73,4.18-1.73s3.07.62,4.18,1.73c1.11,1.11,1.73,2.61,1.73,4.18,0,1.51-.58,2.96-1.62,4.06-.05.03-.09.06-.13.1-.04.04-.07.08-.1.13-1.09,1.04-2.55,1.62-4.06,1.62h0Z"/>
  </g>
</svg>