<?xml version="1.0" encoding="UTF-8"?>
<svg id="Layer_2" data-name="Layer 2" xmlns="http://www.w3.org/2000/svg" viewBox="0 0 27 27">
  <defs>
    <style>
      .cls-1 {
        fill: none;
      }

      .cls-1, .cls-2 {
        stroke-width: 0px;
      }

      .cls-2 {
        fill: #957df3;
      }
    </style>
  </defs>
  <g id="Layer_1-2" data-name="Layer 1">
    <g>
      <g>
        <path class="cls-2" d="M23.58,11.33l-1.41-.28c-.19-.68-.46-1.32-.8-1.94l.8-1.2c.32-.49.26-1.14-.16-1.55l-1.37-1.37c-.41-.41-1.07-.48-1.55-.16l-1.2.8c-.61-.34-1.26-.61-1.94-.8l-.28-1.41c-.11-.57-.62-.99-1.21-.99h-1.93c-.59,0-1.09.41-1.21.99l-.28,1.41c-.68.19-1.32.46-1.94.8l-1.2-.8c-.49-.32-1.14-.26-1.55.16l-1.37,1.37c-.41.41-.48,1.07-.16,1.55l.8,1.2c-.34.61-.61,1.26-.8,1.94l-1.41.28c-.57.11-.99.62-.99,1.21v1.93c0,.59.41,1.09.99,1.21l1.41.28c.19.68.46,1.32.8,1.94l-.8,1.2c-.32.49-.26,1.14.16,1.55l1.37,1.37c.41.41,1.07.48,1.55.16l1.2-.8c.61.34,1.26.61,1.94.8l.28,1.41c.11.57.62.99,1.21.99h1.93c.59,0,1.09-.41,1.21-.99l.28-1.41c.68-.19,1.32-.46,1.94-.8l1.2.8c.49.32,1.14.26,1.55-.16l1.37-1.37c.41-.41.48-1.07.16-1.55l-.8-1.2c.34-.61.61-1.26.8-1.94l1.41-.28c.57-.11.99-.62.99-1.21v-1.93c0-.59-.41-1.09-.99-1.21ZM23.75,14.47c0,.2-.14.36-.33.4l-1.66.33c-.16.03-.28.15-.32.3-.2.77-.5,1.51-.91,2.19-.08.14-.08.31.01.44l.94,1.41c.11.16.09.38-.05.52l-1.37,1.37c-.14.14-.36.16-.52.05l-1.41-.94c-.13-.09-.3-.09-.44-.01-.68.41-1.42.71-2.19.91-.15.04-.27.16-.3.32l-.33,1.66c-.04.19-.2.33-.4.33h-1.93c-.2,0-.36-.14-.4-.33l-.33-1.66c-.03-.16-.15-.28-.3-.32-.77-.2-1.51-.5-2.19-.91-.07-.04-.14-.06-.21-.06-.08,0-.16.02-.23.07l-1.41.94c-.16.11-.38.09-.52-.05l-1.37-1.37c-.14-.14-.16-.36-.05-.52l.94-1.41c.09-.13.09-.3.01-.44-.41-.68-.71-1.42-.91-2.19-.04-.15-.16-.27-.32-.3l-1.66-.33c-.19-.04-.33-.21-.33-.4v-1.93c0-.2.14-.36.33-.4l1.66-.33c.16-.03.28-.15.32-.3.2-.77.5-1.51.91-2.19.08-.14.08-.31-.01-.44l-.94-1.41c-.11-.16-.09-.38.05-.52l1.37-1.37c.14-.14.36-.16.52-.05l1.41.94c.13.09.3.09.44.01.68-.41,1.42-.71,2.19-.91.15-.04.27-.16.3-.32l.33-1.66c.04-.19.21-.33.4-.33h1.93c.2,0,.36.14.4.33l.33,1.66c.03.16.15.28.3.32.77.2,1.51.5,2.19.91.14.08.31.08.44-.01l1.41-.94c.16-.11.38-.09.52.05l1.37,1.37c.14.14.16.36.05.52l-.94,1.41c-.09.13-.09.3-.01.44.41.68.71,1.42.91,2.19.04.15.16.27.32.3l1.66.33c.19.04.33.21.33.4v1.93h0Z"/>
        <path class="cls-2" d="M13.5,7.76c-3.16,0-5.74,2.57-5.74,5.74s2.57,5.74,5.74,5.74,5.74-2.57,5.74-5.74-2.57-5.74-5.74-5.74ZM13.5,18.42c-2.71,0-4.92-2.21-4.92-4.92s2.21-4.92,4.92-4.92,4.92,2.21,4.92,4.92-2.21,4.92-4.92,4.92Z"/>
        <path class="cls-2" d="M13.5,9.4c-2.26,0-4.1,1.84-4.1,4.1s1.84,4.1,4.1,4.1,4.1-1.84,4.1-4.1-1.84-4.1-4.1-4.1ZM13.5,16.78c-1.81,0-3.28-1.47-3.28-3.28s1.47-3.28,3.28-3.28,3.28,1.47,3.28,3.28-1.47,3.28-3.28,3.28Z"/>
      </g>
      <rect class="cls-1" width="27" height="27"/>
    </g>
  </g>
</svg>