<?xml version="1.0" encoding="UTF-8"?>
<svg id="Layer_2" data-name="Layer 2" xmlns="http://www.w3.org/2000/svg" viewBox="0 0 17.76 17.76">
  <defs>
    <style>
      .cls-1 {
        fill: #ff8059;
      }

      .cls-1, .cls-2 {
        stroke-width: 0px;
      }

      .cls-2 {
        fill: #fff;
      }
    </style>
  </defs>
  <g id="Layer_1-2" data-name="Layer 1">
    <g>
      <circle class="cls-1" cx="8.88" cy="8.88" r="8.88"/>
      <path class="cls-2" d="M13.81,5.71v4.86c0,.09-.05.18-.12.23-.6.36-1.28.53-1.97.5-.69-.03-1.36-.27-1.92-.68-1.47-1.01-3-.59-3.48-.42v3.33c0,.15-.12.28-.27.28s-.27-.12-.27-.28V5.15c0-.11.06-.21.16-.25.08-.04,2.13-.98,4.14.4.48.35,1.05.56,1.63.59.59.03,1.17-.11,1.68-.41.08-.05.19-.06.27,0,.08.05.14.14.14.24h0Z"/>
    </g>
  </g>
</svg>