<?xml version="1.0" encoding="UTF-8"?>
<svg id="Layer_2" data-name="Layer 2" xmlns="http://www.w3.org/2000/svg" viewBox="0 0 27 27">
  <defs>
    <style>
      .cls-1 {
        fill: none;
      }

      .cls-1, .cls-2 {
        stroke-width: 0px;
      }

      .cls-2 {
        fill: #957df3;
      }
    </style>
  </defs>
  <g id="Layer_1-2" data-name="Layer 1">
    <g>
      <path class="cls-2" d="M8.61,4.33c-1.33,0-2.44,1.11-2.44,2.44v13.85c0,1.12.92,2.04,2.04,2.04h12.02c.32,0,.61-.29.61-.61v-13.44c0-.36-.26-.61-.61-.61-.59,0-1.22-.63-1.22-1.22s.63-1.22,1.22-1.22c.32,0,.61-.29.61-.61s-.29-.62-.61-.61h-11.61ZM8.61,5.56h9.5c-.21.36-.34.78-.34,1.22s.12.86.34,1.22h-9.5c-.59,0-1.22-.63-1.22-1.22s.63-1.22,1.22-1.22ZM7.39,8.88c.36.21.78.34,1.22.34h11v12.22h-11.41c-.46,0-.81-.35-.81-.81v-11.74ZM9.63,11.46c-.34,0-.61.27-.61.61s.27.61.61.61h7.74c.34,0,.61-.27.61-.61s-.27-.61-.61-.61h-7.74ZM9.63,14.72c-.34,0-.61.27-.61.61s.27.61.61.61h7.74c.34,0,.61-.27.61-.61s-.27-.61-.61-.61h-7.74ZM9.63,17.98c-.34,0-.61.27-.61.61s.27.61.61.61h7.74c.34,0,.61-.27.61-.61s-.27-.61-.61-.61h-7.74Z"/>
      <rect class="cls-1" width="27" height="27"/>
    </g>
  </g>
</svg>