<?xml version="1.0" encoding="UTF-8"?>
<svg id="Layer_2" data-name="Layer 2" xmlns="http://www.w3.org/2000/svg" viewBox="0 0 27 27">
  <defs>
    <style>
      .cls-1 {
        fill: none;
      }

      .cls-1, .cls-2 {
        stroke-width: 0px;
      }

      .cls-2 {
        fill: #957df3;
      }
    </style>
  </defs>
  <g id="Layer_1-2" data-name="Layer 1">
    <g>
      <path class="cls-2" d="M13.5,2.33C7.34,2.33,2.33,7.34,2.33,13.5s5.01,11.17,11.17,11.17,11.17-5.01,11.17-11.17S19.66,2.33,13.5,2.33ZM13.5,3.79c5.37,0,9.71,4.34,9.71,9.71s-4.34,9.71-9.71,9.71S3.79,18.87,3.79,13.5,8.13,3.79,13.5,3.79ZM18.58,7.62c-.08,0-.17.03-.24.07l-7.03,3.26c-.16.07-.28.19-.36.35l-3.26,7.04c-.17.36-.02.8.34.97.2.09.43.09.63,0l7.03-3.26c.16-.07.28-.2.36-.36l3.26-7.04c.17-.36.01-.8-.35-.97-.12-.05-.25-.08-.37-.06h0ZM17.16,9.84l-2.31,4.99-5,2.31,2.31-4.99,5-2.31h0ZM13.5,12.53c-.25,0-.5.09-.69.28-.38.38-.38,1,0,1.38s1,.38,1.38,0,.38-1,0-1.38c-.19-.19-.44-.28-.69-.28Z"/>
      <rect class="cls-1" width="27" height="27"/>
    </g>
  </g>
</svg>