<?xml version="1.0" encoding="UTF-8"?>
<svg id="Layer_2" data-name="Layer 2" xmlns="http://www.w3.org/2000/svg" viewBox="0 0 26 26">
  <defs>
    <style>
      .cls-1 {
        fill: none;
      }

      .cls-1, .cls-2 {
        stroke-width: 0px;
      }

      .cls-2 {
        fill: #6f2bff;
      }
    </style>
  </defs>
  <g id="Layer_1-2" data-name="Layer 1">
    <g>
      <path class="cls-2" d="M13.78,24.03c-2.34,0-4.52-.71-6.41-2.05-.87.45-2.18,1-3.31,1-1.81,0-2.52-.63-2.65-.76-.18-.18-.26-.42-.21-.66.05-.24.18-.47.39-.58.66-.37,2.28-1.52,2.47-2.78-.87-1.6-1.31-3.39-1.31-5.2C2.76,6.91,7.69,1.97,13.78,1.97s11.03,4.94,11.03,11.03-4.94,11.03-11.03,11.03h0ZM7.45,20.27c.18,0,.34.05.5.16,1.68,1.31,3.7,2.02,5.86,2.02,5.22,0,9.45-4.23,9.45-9.45,0-5.22-4.25-9.45-9.48-9.45S4.33,7.78,4.33,13c0,1.63.42,3.23,1.21,4.62.08.13.1.26.1.39-.03,1.42-1.02,2.6-1.92,3.36h.34c.71,0,1.84-.39,2.99-1.05.13-.03.26-.05.39-.05h0ZM13.78,19.04c-.45,0-.79-.34-.79-.79v-5.78h-.79c-.45,0-.79-.34-.79-.79s.34-.79.79-.79h1.58c.45,0,.79.34.79.79v6.56c0,.45-.34.79-.79.79ZM13.26,9.59c-.74,0-1.31-.58-1.31-1.31s.58-1.31,1.31-1.31,1.31.58,1.31,1.31-.58,1.31-1.31,1.31Z"/>
      <rect class="cls-1" width="26" height="26"/>
    </g>
  </g>
</svg>