<?xml version="1.0" encoding="UTF-8"?>
<svg id="Layer_2" data-name="Layer 2" xmlns="http://www.w3.org/2000/svg" viewBox="0 0 26 26">
  <defs>
    <style>
      .cls-1 {
        fill: none;
      }

      .cls-1, .cls-2 {
        stroke-width: 0px;
      }

      .cls-2 {
        fill: #6f2bff;
      }
    </style>
  </defs>
  <g id="Layer_1-2" data-name="Layer 1">
    <g>
      <g>
        <path class="cls-2" d="M3.99,23.45c-.32,0-.58-.26-.58-.58V3.13c0-.32.26-.58.58-.58h10.56c.15,0,.3.06.41.17l4.04,4.03c.11.11.17.26.17.41v7.74l-.16-.02c-.14-.01-.28-.02-.42-.02s-.28,0-.42.02l-.16.02v-6.9h-3.71c-.32,0-.58-.26-.58-.58v-3.71H4.56v18.59h10.44l.05.05c.26.32.56.6.9.83l.39.27H3.99ZM17.44,6.84l-2.57-2.57v2.57h2.57Z"/>
        <path class="cls-2" d="M6.56,11.43c-.32,0-.58-.26-.58-.58s.26-.58.58-.58h9.44c.32,0,.58.26.58.58s-.26.58-.58.58H6.56Z"/>
        <path class="cls-2" d="M6.56,14.01c-.32,0-.58-.26-.58-.58s.26-.58.58-.58h6.01c.32,0,.58.26.58.58s-.26.58-.58.58h-6.01Z"/>
        <path class="cls-2" d="M6.56,16.58c-.32,0-.58-.26-.58-.58s.26-.58.58-.58h7.73c.32,0,.58.26.58.58s-.26.58-.58.58h-7.73Z"/>
        <path class="cls-2" d="M6.56,19.16c-.32,0-.58-.26-.58-.58s.26-.58.58-.58h4.29c.32,0,.58.26.58.58s-.26.58-.58.58h-4.29Z"/>
        <path class="cls-2" d="M18.58,23.45c-2.21,0-4.01-1.8-4.01-4.01s1.8-4.01,4.01-4.01,4.01,1.8,4.01,4.01-1.8,4.01-4.01,4.01ZM18.58,16.58c-1.57,0-2.85,1.28-2.85,2.85s1.28,2.85,2.85,2.85,2.85-1.28,2.85-2.85-1.28-2.85-2.85-2.85Z"/>
        <path class="cls-2" d="M18.28,21.11c-.15,0-.3-.06-.41-.17l-1.21-1.21c-.11-.11-.17-.25-.17-.41s.06-.3.17-.41c.11-.11.25-.17.41-.17s.3.06.41.17l.8.8,1.41-1.41c.11-.11.25-.17.41-.17s.3.06.41.17c.11.11.17.25.17.41s-.06.3-.17.41l-1.82,1.82c-.11.11-.25.17-.41.17Z"/>
      </g>
      <rect class="cls-1" width="26" height="26"/>
    </g>
  </g>
</svg>