<?xml version="1.0" encoding="UTF-8"?>
<svg id="Layer_2" data-name="Layer 2" xmlns="http://www.w3.org/2000/svg" viewBox="0 0 18 18">
  <defs>
    <style>
      .cls-1 {
        fill: none;
      }

      .cls-1, .cls-2 {
        stroke-width: 0px;
      }

      .cls-2 {
        fill: gray;
        fill-rule: evenodd;
      }
    </style>
  </defs>
  <g id="Layer_1-2" data-name="Layer 1">
    <g>
      <path class="cls-2" d="M3.7,15.91c-.43,0-.84-.17-1.14-.47-.3-.31-.47-.71-.47-1.14V4.88c0-.43.17-.84.47-1.14.31-.31.71-.47,1.14-.47h1.33v-.74c0-.24.2-.44.44-.44s.44.2.44.44v.74h2.65v-.74c0-.24.2-.44.44-.44s.44.2.44.44v.74h2.65v-.74c0-.24.2-.44.44-.44s.44.2.44.44v.74h1.33c.43,0,.84.17,1.14.47.3.31.47.71.47,1.14v9.42c0,.43-.17.84-.47,1.14-.31.31-.71.47-1.14.47H3.7ZM2.96,14.3c0,.19.08.39.22.52.14.14.33.22.52.22h10.59c.19,0,.39-.08.52-.22.14-.14.22-.33.22-.52v-6.62H2.96v6.62ZM3.7,4.14c-.19,0-.39.08-.52.22-.14.14-.22.33-.22.52v1.92h12.07v-1.92c0-.19-.08-.39-.22-.52-.14-.14-.33-.22-.52-.22h-1.33v.74c0,.24-.2.44-.44.44s-.44-.2-.44-.44v-.74h-2.65v.74c0,.24-.2.44-.44.44s-.44-.2-.44-.44v-.74h-2.65v.74c0,.24-.2.44-.44.44s-.44-.2-.44-.44v-.74h-1.33Z"/>
      <rect class="cls-1" width="18" height="18"/>
    </g>
  </g>
</svg>