<?xml version="1.0" encoding="UTF-8"?>
<svg id="Layer_2" data-name="Layer 2" xmlns="http://www.w3.org/2000/svg" viewBox="0 0 27 27">
  <defs>
    <style>
      .cls-1 {
        fill: none;
      }

      .cls-1, .cls-2 {
        stroke-width: 0px;
      }

      .cls-2 {
        fill: #957df3;
      }
    </style>
  </defs>
  <g id="Layer_1-2" data-name="Layer 1">
    <g>
      <g>
        <path class="cls-2" d="M13.48,19.16c-.19.09-.31.26-.35.46l-.19,1.4h-1.97l-.19-1.4c-.02-.2-.17-.39-.35-.46l-1.2-.52c-.19-.09-.39-.04-.56.09l-1.08.85-1.39-1.46.81-1.13c.12-.17.15-.39.06-.59l-.5-1.27c-.08-.2-.25-.33-.46-.37l-1.33-.22v-2.07l1.33-.2c.19-.02.37-.17.44-.37l.5-1.27c.08-.2.04-.41-.08-.59l-.81-1.13,1.39-1.48,1.08.85c.17.13.37.15.56.07l1.2-.52c.19-.09.31-.26.35-.48l.19-1.4h1.97l.19,1.4c.04.22.17.39.35.48l1.2.52c.19.09.39.04.56-.07l1.08-.85.73.79.35-1.33-.64-.68c-.19-.22-.52-.24-.75-.07l-1.2.96-.6-.26-.23-1.57c-.04-.31-.29-.52-.56-.52h-2.9c-.29,0-.52.22-.56.52l-.21,1.57-.6.26-1.22-.96c-.23-.17-.54-.15-.75.07l-2.1,2.2c-.21.22-.23.55-.06.79l.91,1.29-.25.63-1.49.24c-.27.04-.5.31-.5.59v3.12c0,.15.06.31.17.41.08.09.21.15.31.17l1.49.24.25.63-.91,1.29c-.17.24-.15.57.06.79l2.1,2.2c.06.07.15.11.23.15.17.07.37.02.52-.09l1.22-.96.6.26.21,1.57c.04.28.29.52.56.52h2.97c.29,0,.52-.22.56-.52l.23-1.57.58-.26-.19-1.22-1.12.48Z"/>
        <path class="cls-2" d="M11.97,9.93c-1.87,0-3.38,1.59-3.38,3.56s1.51,3.56,3.38,3.56,3.38-1.59,3.38-3.56c0-1.96-1.51-3.56-3.38-3.56ZM11.97,15.85c-1.24,0-2.24-1.07-2.24-2.36s1-2.36,2.24-2.36,2.24,1.07,2.24,2.36c0,1.31-1.02,2.36-2.24,2.36Z"/>
        <path class="cls-2" d="M23.01,6.64c-.25-.35-.6-.59-1-.7l-1.1-.33c-.52-.15-1.08-.07-1.54.28-.33.26-.56.63-.66,1.05l-2.88,10.56c-.04.17-.06.35-.04.52.1.68.35,2.4.48,3.16.06.37.25.7.56.85.17.09.31.13.48.13.29,0,.58-.13.79-.37l2.03-2.44c.12-.13.21-.31.25-.48l2.9-10.63c.17-.55.06-1.13-.27-1.61ZM17.36,20.84l-.44-2.9,2.28.7-1.85,2.2ZM22.2,7.92l-2.64,9.58-2.37-.72,2.64-9.58c.04-.17.15-.31.29-.39.15-.09.31-.11.48-.07l1.16.35c.33.11.52.48.44.83Z"/>
      </g>
      <rect class="cls-1" width="27" height="27"/>
    </g>
  </g>
</svg>