<?xml version="1.0" encoding="UTF-8"?>
<svg id="Layer_2" data-name="Layer 2" xmlns="http://www.w3.org/2000/svg" xmlns:xlink="http://www.w3.org/1999/xlink" viewBox="0 0 479.96 81.78">
  <defs>
    <style>
      .cls-1 {
        fill: #eae5fd;
        filter: url(#drop-shadow-1);
        opacity: .5;
      }

      .cls-1, .cls-2 {
        stroke-width: 0px;
      }

      .cls-2 {
        fill: gray;
      }

      .cls-3 {
        fill: none;
        stroke: #957df3;
        stroke-linecap: round;
        stroke-linejoin: round;
      }
    </style>
    <filter id="drop-shadow-1" filterUnits="userSpaceOnUse">
      <feOffset dx="0" dy="0"/>
      <feGaussianBlur result="blur" stdDeviation="3"/>
      <feFlood flood-color="#000" flood-opacity=".15"/>
      <feComposite in2="blur" operator="in"/>
      <feComposite in="SourceGraphic"/>
    </filter>
  </defs>
  <g id="Layer_1-2" data-name="Layer 1">
    <g>
      <rect class="cls-1" y="0" width="479.96" height="81.78" rx="5" ry="5"/>
      <g>
        <path class="cls-2" d="M27.41,71.96c-2.13-2.14-2-4.18-.74-5.44,1.27-1.27,3.31-1.4,5.45.73s2.01,4.19.74,5.46c-1.26,1.26-3.3,1.4-5.45-.75ZM31.28,68.09c-1.38-1.38-2.87-1.83-3.88-.83-1.01,1.01-.55,2.5.83,3.87,1.39,1.39,2.88,1.84,3.88.83,1.01-1.01.55-2.5-.83-3.88Z"/>
        <path class="cls-2" d="M31.36,65.17l-.72-.72c.54-.65.65-1.4.29-2.03l.87-.87,6.03,6.03-.87.87-4.91-4.91c.03.53-.22,1.15-.69,1.64Z"/>
        <path class="cls-2" d="M35.06,58.29l.87-.87,3.68,8.37-.87.87-3.69-8.37Z"/>
        <path class="cls-2" d="M41.2,58.68c.34-1.39.65-2.34-.1-3.09-.67-.69-1.5-.53-2.12.09s-.77,1.51.04,2.32l.12.12-.84.84-.16-.16c-1.08-1.08-1.21-2.54.11-3.87,1.26-1.26,2.68-1.25,3.68-.25,1.08,1.08.75,2.39.4,3.7-.36,1.46-.41,2.36.18,2.95l.04.04,3.06-3.06.73.73-4.05,4.05-.25-.25c-1.08-1.08-1.35-2.16-.84-4.17Z"/>
        <path class="cls-2" d="M45.98,53.9c.34-1.39.65-2.34-.09-3.09-.67-.69-1.5-.53-2.12.09s-.77,1.51.04,2.32l.12.12-.84.84-.16-.16c-1.08-1.08-1.21-2.54.11-3.87,1.26-1.26,2.68-1.25,3.68-.25,1.08,1.08.75,2.39.4,3.7-.36,1.46-.41,2.36.18,2.95l.04.04,3.06-3.06.73.73-4.05,4.05-.25-.25c-1.08-1.08-1.35-2.16-.84-4.17Z"/>
      </g>
      <g>
        <path class="cls-2" d="M55.59,71.96c-2.14-2.14-2-4.18-.74-5.44s3.31-1.4,5.45.73c2.15,2.15,2.01,4.19.74,5.46s-3.3,1.4-5.45-.75ZM59.47,68.09c-1.38-1.38-2.87-1.83-3.87-.83s-.55,2.5.83,3.87c1.39,1.39,2.88,1.84,3.88.83s.55-2.5-.83-3.88Z"/>
        <path class="cls-2" d="M59.54,65.17l-.72-.72c.54-.65.65-1.4.29-2.03l.87-.87,6.03,6.03-.87.87-4.91-4.91c.03.53-.22,1.15-.69,1.64Z"/>
        <path class="cls-2" d="M63.24,58.29l.87-.87,3.69,8.37-.87.87-3.69-8.37Z"/>
        <path class="cls-2" d="M69.39,58.68c.34-1.39.65-2.34-.09-3.09-.67-.69-1.5-.53-2.12.09-.64.64-.77,1.51.04,2.32l.12.12-.84.84-.16-.16c-1.08-1.08-1.21-2.54.11-3.87,1.26-1.26,2.68-1.25,3.68-.25,1.08,1.08.75,2.38.4,3.7-.36,1.46-.41,2.36.18,2.95l.04.04,3.06-3.06.73.73-4.05,4.05-.25-.25c-1.08-1.08-1.35-2.16-.84-4.17Z"/>
        <path class="cls-2" d="M74.17,53.9c.34-1.39.65-2.34-.09-3.09-.67-.69-1.5-.53-2.12.09s-.77,1.51.04,2.32l.12.12-.84.84-.16-.16c-1.08-1.08-1.21-2.54.11-3.87,1.26-1.26,2.68-1.25,3.68-.25,1.08,1.08.75,2.38.4,3.7-.36,1.46-.41,2.36.18,2.95l.04.04,3.06-3.06.73.73-4.05,4.05-.25-.25c-1.08-1.08-1.35-2.16-.84-4.17Z"/>
      </g>
      <g>
        <path class="cls-2" d="M84.54,71.96c-2.14-2.14-2-4.18-.74-5.44s3.32-1.4,5.45.73c2.15,2.15,2.01,4.19.74,5.46s-3.3,1.4-5.45-.75ZM88.41,68.09c-1.38-1.38-2.87-1.83-3.87-.83-1.01,1.01-.55,2.5.83,3.87,1.39,1.39,2.88,1.84,3.88.84s.55-2.5-.83-3.88Z"/>
        <path class="cls-2" d="M88.49,65.17l-.72-.72c.54-.65.65-1.4.29-2.03l.87-.87,6.03,6.03-.87.87-4.91-4.91c.03.53-.21,1.15-.69,1.64Z"/>
        <path class="cls-2" d="M92.18,58.29l.87-.87,3.69,8.37-.87.87-3.69-8.37Z"/>
        <path class="cls-2" d="M98.33,58.68c.34-1.39.65-2.34-.09-3.09-.67-.69-1.5-.53-2.12.09s-.77,1.51.04,2.32l.12.12-.84.84-.16-.16c-1.08-1.08-1.21-2.54.11-3.87,1.26-1.26,2.68-1.25,3.68-.25,1.08,1.08.75,2.38.4,3.7-.36,1.46-.41,2.36.18,2.95l.04.04,3.06-3.06.73.73-4.05,4.05-.25-.25c-1.08-1.08-1.35-2.16-.84-4.17Z"/>
        <path class="cls-2" d="M103.11,53.9c.34-1.39.65-2.34-.09-3.09-.67-.69-1.5-.53-2.12.09-.64.64-.77,1.51.04,2.32l.12.12-.84.84-.16-.16c-1.08-1.08-1.21-2.54.11-3.87,1.26-1.26,2.68-1.25,3.68-.25,1.08,1.08.75,2.38.4,3.7-.36,1.46-.41,2.36.18,2.95l.04.04,3.06-3.06.73.73-4.05,4.05-.25-.25c-1.08-1.08-1.35-2.16-.84-4.17Z"/>
      </g>
      <g>
        <path class="cls-2" d="M112.72,71.96c-2.14-2.14-2-4.18-.74-5.44s3.31-1.4,5.45.73c2.15,2.15,2.01,4.19.74,5.46s-3.3,1.4-5.45-.75ZM116.59,68.09c-1.38-1.38-2.87-1.83-3.87-.83-1.01,1.01-.55,2.5.83,3.87,1.39,1.39,2.88,1.84,3.88.84s.55-2.5-.83-3.88Z"/>
        <path class="cls-2" d="M116.67,65.17l-.72-.72c.54-.65.65-1.4.29-2.03l.87-.87,6.03,6.03-.87.87-4.91-4.91c.03.53-.21,1.15-.69,1.64Z"/>
        <path class="cls-2" d="M120.37,58.29l.87-.87,3.69,8.37-.87.87-3.69-8.37Z"/>
        <path class="cls-2" d="M126.52,58.68c.34-1.39.65-2.34-.09-3.09-.67-.69-1.5-.53-2.12.09s-.77,1.51.04,2.32l.12.12-.84.84-.16-.16c-1.08-1.08-1.21-2.54.11-3.87,1.26-1.26,2.68-1.25,3.68-.25,1.08,1.08.75,2.38.4,3.7-.36,1.46-.41,2.36.18,2.95l.04.04,3.06-3.06.73.73-4.05,4.05-.25-.25c-1.08-1.08-1.35-2.16-.84-4.17Z"/>
        <path class="cls-2" d="M131.3,53.9c.34-1.39.65-2.34-.09-3.09-.67-.69-1.5-.53-2.12.09-.64.64-.77,1.51.04,2.32l.12.12-.84.84-.16-.16c-1.08-1.08-1.21-2.54.11-3.87,1.26-1.26,2.68-1.25,3.68-.25,1.08,1.08.75,2.39.4,3.7-.36,1.46-.41,2.36.18,2.95l.04.04,3.06-3.06.73.73-4.05,4.05-.25-.25c-1.08-1.08-1.35-2.16-.84-4.17Z"/>
      </g>
      <g>
        <path class="cls-2" d="M140.9,71.96c-2.14-2.14-2-4.18-.74-5.44s3.31-1.4,5.45.73c2.15,2.15,2.01,4.19.74,5.46s-3.3,1.4-5.45-.75ZM144.78,68.09c-1.38-1.38-2.87-1.83-3.87-.83s-.55,2.5.83,3.87c1.39,1.39,2.88,1.84,3.88.84s.55-2.5-.83-3.88Z"/>
        <path class="cls-2" d="M144.86,65.17l-.72-.72c.54-.65.65-1.4.29-2.03l.87-.87,6.03,6.03-.87.87-4.91-4.91c.03.53-.21,1.15-.69,1.64Z"/>
        <path class="cls-2" d="M148.55,58.29l.87-.87,3.69,8.37-.87.87-3.69-8.37Z"/>
        <path class="cls-2" d="M154.7,58.68c.34-1.39.65-2.34-.09-3.09-.67-.69-1.5-.53-2.12.09s-.77,1.51.04,2.32l.12.12-.84.84-.16-.16c-1.08-1.08-1.21-2.54.11-3.87,1.26-1.26,2.68-1.25,3.68-.25,1.08,1.08.75,2.38.4,3.7-.36,1.46-.41,2.36.18,2.95l.04.04,3.06-3.06.73.73-4.05,4.05-.25-.25c-1.08-1.08-1.35-2.16-.84-4.17Z"/>
        <path class="cls-2" d="M159.48,53.9c.34-1.39.65-2.34-.09-3.09-.67-.69-1.5-.53-2.12.09-.64.64-.77,1.51.04,2.32l.12.12-.84.84-.16-.16c-1.08-1.08-1.21-2.54.11-3.87,1.26-1.26,2.68-1.25,3.68-.25,1.08,1.08.75,2.39.4,3.7-.36,1.46-.41,2.36.18,2.95l.04.04,3.06-3.06.73.73-4.05,4.05-.25-.25c-1.08-1.08-1.35-2.16-.84-4.17Z"/>
      </g>
      <g>
        <path class="cls-2" d="M168.33,71.96c-2.14-2.14-2-4.18-.74-5.44,1.27-1.27,3.31-1.4,5.45.73s2.01,4.19.74,5.46c-1.26,1.26-3.3,1.4-5.45-.75ZM172.2,68.09c-1.38-1.38-2.87-1.83-3.87-.83-1.01,1.01-.55,2.5.83,3.87,1.39,1.39,2.88,1.84,3.88.84,1.01-1.01.55-2.5-.84-3.88Z"/>
        <path class="cls-2" d="M172.28,65.17l-.72-.72c.54-.65.65-1.4.29-2.03l.87-.87,6.03,6.03-.87.87-4.91-4.91c.03.53-.22,1.15-.69,1.64Z"/>
        <path class="cls-2" d="M175.97,58.29l.87-.87,3.69,8.37-.87.87-3.69-8.37Z"/>
        <path class="cls-2" d="M182.12,58.68c.34-1.39.65-2.34-.09-3.09-.67-.69-1.5-.53-2.12.09-.64.64-.77,1.51.04,2.32l.12.12-.84.84-.16-.16c-1.08-1.08-1.21-2.54.11-3.87,1.26-1.26,2.68-1.25,3.68-.25,1.08,1.08.75,2.39.4,3.7-.36,1.46-.41,2.36.18,2.95l.04.04,3.06-3.06.73.73-4.05,4.05-.25-.25c-1.08-1.08-1.35-2.16-.84-4.17Z"/>
        <path class="cls-2" d="M186.9,53.9c.34-1.39.65-2.34-.09-3.09-.67-.69-1.5-.53-2.12.09-.64.64-.77,1.51.04,2.32l.12.12-.84.84-.16-.16c-1.08-1.08-1.21-2.54.11-3.87,1.26-1.26,2.68-1.25,3.68-.25,1.08,1.08.75,2.39.4,3.7-.36,1.46-.41,2.36.18,2.95l.04.04,3.06-3.06.73.73-4.05,4.05-.25-.25c-1.08-1.08-1.35-2.16-.84-4.17Z"/>
      </g>
      <g>
        <path class="cls-2" d="M196.51,71.96c-2.14-2.14-2-4.18-.74-5.44,1.27-1.27,3.31-1.4,5.45.73,2.15,2.15,2.01,4.19.74,5.46-1.26,1.26-3.3,1.4-5.45-.75ZM200.38,68.09c-1.38-1.38-2.87-1.83-3.87-.83s-.55,2.5.83,3.87c1.39,1.39,2.88,1.84,3.88.84,1.01-1.01.55-2.5-.84-3.88Z"/>
        <path class="cls-2" d="M200.46,65.17l-.72-.72c.54-.65.65-1.4.29-2.03l.87-.87,6.03,6.03-.87.87-4.91-4.91c.03.53-.21,1.15-.69,1.64Z"/>
        <path class="cls-2" d="M204.16,58.29l.87-.87,3.69,8.37-.87.87-3.69-8.37Z"/>
        <path class="cls-2" d="M210.31,58.68c.34-1.39.65-2.34-.09-3.09-.67-.69-1.5-.53-2.12.09-.64.64-.77,1.51.04,2.32l.12.12-.84.84-.16-.16c-1.08-1.08-1.21-2.54.11-3.87,1.26-1.26,2.68-1.25,3.68-.25,1.08,1.08.75,2.39.4,3.7-.36,1.46-.41,2.36.18,2.95l.04.04,3.06-3.06.73.73-4.05,4.05-.25-.25c-1.08-1.08-1.35-2.16-.84-4.17Z"/>
        <path class="cls-2" d="M215.09,53.9c.34-1.39.65-2.34-.09-3.09-.67-.69-1.5-.53-2.12.09-.64.64-.77,1.51.04,2.32l.12.12-.84.84-.16-.16c-1.08-1.08-1.21-2.54.11-3.87,1.26-1.26,2.68-1.25,3.68-.25,1.08,1.08.75,2.39.4,3.7-.36,1.46-.41,2.36.18,2.95l.04.04,3.06-3.06.73.73-4.05,4.05-.25-.25c-1.08-1.08-1.35-2.16-.84-4.17Z"/>
      </g>
      <g>
        <path class="cls-2" d="M225.45,71.96c-2.14-2.14-2-4.18-.74-5.44,1.27-1.27,3.31-1.4,5.45.73,2.15,2.15,2.01,4.19.74,5.46s-3.3,1.4-5.45-.75ZM229.33,68.09c-1.38-1.38-2.87-1.83-3.87-.83-1.01,1.01-.55,2.5.83,3.87,1.39,1.39,2.88,1.84,3.88.84,1.01-1.01.55-2.5-.84-3.88Z"/>
        <path class="cls-2" d="M229.41,65.17l-.72-.72c.54-.65.65-1.4.29-2.03l.87-.87,6.03,6.03-.87.87-4.91-4.91c.03.53-.22,1.15-.69,1.64Z"/>
        <path class="cls-2" d="M233.1,58.29l.87-.87,3.69,8.37-.87.87-3.68-8.37Z"/>
        <path class="cls-2" d="M239.25,58.68c.34-1.39.65-2.34-.09-3.09-.67-.69-1.5-.53-2.12.09-.64.64-.77,1.51.04,2.32l.12.12-.84.84-.16-.16c-1.08-1.08-1.21-2.54.11-3.87,1.26-1.26,2.68-1.25,3.68-.25,1.08,1.08.75,2.39.4,3.7-.36,1.46-.41,2.36.18,2.95l.04.04,3.06-3.06.73.73-4.05,4.05-.25-.25c-1.08-1.08-1.35-2.16-.84-4.17Z"/>
        <path class="cls-2" d="M244.03,53.9c.34-1.39.65-2.34-.1-3.09-.67-.69-1.5-.53-2.12.09s-.77,1.51.04,2.32l.12.12-.84.84-.16-.16c-1.08-1.08-1.21-2.54.11-3.87,1.26-1.26,2.68-1.25,3.68-.25,1.08,1.08.75,2.39.4,3.7-.36,1.46-.41,2.36.18,2.95l.04.04,3.06-3.06.73.73-4.05,4.05-.25-.25c-1.08-1.08-1.35-2.16-.84-4.17Z"/>
      </g>
      <g>
        <path class="cls-2" d="M252.88,71.96c-2.14-2.14-2-4.18-.74-5.44,1.27-1.27,3.31-1.4,5.45.73,2.15,2.15,2.01,4.19.74,5.46s-3.3,1.4-5.45-.75ZM256.75,68.09c-1.38-1.38-2.87-1.83-3.87-.83-1.01,1.01-.55,2.5.83,3.87,1.39,1.39,2.88,1.84,3.88.84,1.01-1.01.55-2.5-.84-3.88Z"/>
        <path class="cls-2" d="M256.83,65.17l-.72-.72c.54-.65.65-1.4.29-2.03l.87-.87,6.03,6.03-.87.87-4.91-4.91c.03.53-.22,1.15-.69,1.64Z"/>
        <path class="cls-2" d="M260.52,58.29l.87-.87,3.69,8.37-.87.87-3.69-8.37Z"/>
        <path class="cls-2" d="M266.67,58.68c.34-1.39.65-2.34-.09-3.09-.67-.69-1.5-.53-2.12.09-.64.64-.77,1.51.04,2.32l.12.12-.84.84-.16-.16c-1.08-1.08-1.21-2.54.11-3.87,1.26-1.26,2.68-1.25,3.68-.25,1.08,1.08.75,2.39.4,3.7-.36,1.46-.41,2.36.18,2.95l.04.04,3.06-3.06.73.73-4.05,4.05-.25-.25c-1.08-1.08-1.35-2.16-.84-4.17Z"/>
        <path class="cls-2" d="M271.45,53.9c.34-1.39.65-2.34-.1-3.09-.67-.69-1.5-.53-2.12.09-.64.64-.77,1.51.04,2.32l.12.12-.84.84-.16-.16c-1.08-1.08-1.21-2.54.11-3.87,1.26-1.26,2.68-1.25,3.68-.25,1.08,1.08.75,2.39.4,3.7-.36,1.46-.41,2.36.18,2.95l.04.04,3.06-3.06.73.73-4.05,4.05-.25-.25c-1.08-1.08-1.35-2.16-.84-4.17Z"/>
      </g>
      <g>
        <path class="cls-2" d="M281.06,71.96c-2.14-2.14-2-4.18-.74-5.44,1.27-1.27,3.31-1.4,5.45.73,2.15,2.15,2.01,4.19.74,5.46s-3.3,1.4-5.45-.75ZM284.93,68.09c-1.38-1.38-2.87-1.83-3.87-.83-1.01,1.01-.55,2.5.83,3.87,1.39,1.39,2.88,1.84,3.88.84,1.01-1.01.55-2.5-.84-3.88Z"/>
        <path class="cls-2" d="M285.01,65.17l-.72-.72c.54-.65.65-1.4.29-2.03l.87-.87,6.03,6.03-.87.87-4.91-4.91c.03.53-.22,1.15-.69,1.64Z"/>
        <path class="cls-2" d="M288.71,58.29l.87-.87,3.69,8.37-.87.87-3.69-8.37Z"/>
        <path class="cls-2" d="M294.86,58.68c.34-1.39.65-2.34-.09-3.09-.67-.69-1.5-.53-2.12.09-.64.64-.77,1.51.04,2.32l.12.12-.84.84-.16-.16c-1.08-1.08-1.21-2.54.11-3.87,1.26-1.26,2.68-1.25,3.68-.25,1.08,1.08.75,2.39.4,3.7-.36,1.46-.41,2.36.18,2.95l.04.04,3.06-3.06.73.73-4.05,4.05-.25-.25c-1.08-1.08-1.35-2.16-.84-4.17Z"/>
        <path class="cls-2" d="M299.64,53.9c.34-1.39.65-2.34-.1-3.09-.67-.69-1.5-.53-2.12.09-.64.64-.77,1.51.04,2.32l.12.12-.84.84-.16-.16c-1.08-1.08-1.21-2.54.11-3.87,1.26-1.26,2.68-1.25,3.68-.25,1.08,1.08.75,2.39.4,3.7-.36,1.46-.41,2.36.18,2.95l.04.04,3.06-3.06.73.73-4.05,4.05-.25-.25c-1.08-1.08-1.35-2.16-.84-4.17Z"/>
      </g>
      <g>
        <path class="cls-2" d="M309.24,71.96c-2.14-2.14-2-4.18-.74-5.44s3.31-1.4,5.45.73c2.15,2.15,2.01,4.19.74,5.46s-3.3,1.4-5.45-.75ZM313.12,68.09c-1.38-1.38-2.87-1.83-3.87-.83-1.01,1.01-.55,2.5.83,3.87,1.39,1.39,2.88,1.84,3.88.83,1.01-1.01.55-2.5-.83-3.88Z"/>
        <path class="cls-2" d="M313.2,65.17l-.72-.72c.54-.65.65-1.4.29-2.03l.87-.87,6.03,6.03-.87.87-4.91-4.91c.03.53-.22,1.15-.69,1.64Z"/>
        <path class="cls-2" d="M316.89,58.29l.87-.87,3.69,8.37-.87.87-3.69-8.37Z"/>
        <path class="cls-2" d="M323.04,58.68c.34-1.39.65-2.34-.1-3.09-.67-.69-1.5-.53-2.12.09s-.77,1.51.04,2.32l.12.12-.84.84-.16-.16c-1.08-1.08-1.21-2.54.11-3.87,1.26-1.26,2.68-1.25,3.68-.25,1.08,1.08.75,2.39.4,3.7-.36,1.46-.41,2.36.18,2.95l.04.04,3.06-3.06.73.73-4.05,4.05-.25-.25c-1.08-1.08-1.35-2.16-.84-4.17Z"/>
        <path class="cls-2" d="M327.82,53.9c.34-1.39.65-2.34-.09-3.09-.67-.69-1.5-.53-2.12.09-.64.64-.77,1.51.04,2.32l.12.12-.84.84-.16-.16c-1.08-1.08-1.21-2.54.11-3.87,1.26-1.26,2.68-1.25,3.68-.25,1.08,1.08.75,2.39.4,3.7-.36,1.46-.41,2.36.18,2.95l.04.04,3.06-3.06.73.73-4.05,4.05-.25-.25c-1.08-1.08-1.35-2.16-.84-4.17Z"/>
      </g>
      <g>
        <path class="cls-2" d="M338.19,71.96c-2.14-2.14-2-4.18-.74-5.44,1.27-1.27,3.31-1.4,5.45.73,2.15,2.15,2.01,4.19.74,5.46-1.26,1.26-3.3,1.4-5.45-.75ZM342.06,68.09c-1.38-1.38-2.87-1.83-3.87-.83s-.55,2.5.83,3.87c1.39,1.39,2.88,1.84,3.88.84s.55-2.5-.84-3.88Z"/>
        <path class="cls-2" d="M342.14,65.17l-.72-.72c.54-.65.65-1.4.29-2.03l.87-.87,6.03,6.03-.87.87-4.91-4.91c.03.53-.21,1.15-.69,1.64Z"/>
        <path class="cls-2" d="M345.84,58.29l.87-.87,3.69,8.37-.87.87-3.69-8.37Z"/>
        <path class="cls-2" d="M351.99,58.68c.34-1.39.65-2.34-.09-3.09-.67-.69-1.5-.53-2.12.09-.64.64-.77,1.51.04,2.32l.12.12-.84.84-.16-.16c-1.08-1.08-1.21-2.54.11-3.87,1.26-1.26,2.68-1.25,3.68-.25,1.08,1.08.75,2.38.4,3.7-.36,1.46-.41,2.36.18,2.95l.04.04,3.06-3.06.73.73-4.05,4.05-.25-.25c-1.08-1.08-1.35-2.16-.84-4.17Z"/>
        <path class="cls-2" d="M356.77,53.9c.34-1.39.65-2.34-.09-3.09-.67-.69-1.5-.53-2.12.09-.64.64-.77,1.51.04,2.32l.12.12-.84.84-.16-.16c-1.08-1.08-1.21-2.54.11-3.87,1.26-1.26,2.68-1.25,3.68-.25,1.08,1.08.75,2.39.4,3.7-.36,1.46-.41,2.36.18,2.95l.04.04,3.06-3.06.73.73-4.05,4.05-.25-.25c-1.08-1.08-1.35-2.16-.84-4.17Z"/>
      </g>
      <g>
        <path class="cls-2" d="M367.19,71.96c-2.14-2.14-2-4.18-.74-5.44,1.27-1.27,3.31-1.4,5.45.73,2.15,2.15,2.01,4.19.74,5.46-1.26,1.26-3.3,1.4-5.45-.75ZM371.06,68.09c-1.38-1.38-2.87-1.83-3.87-.83s-.55,2.5.83,3.87c1.39,1.39,2.88,1.84,3.88.84s.55-2.5-.84-3.88Z"/>
        <path class="cls-2" d="M371.14,65.17l-.72-.72c.54-.65.65-1.4.29-2.03l.87-.87,6.03,6.03-.87.87-4.91-4.91c.03.53-.21,1.15-.69,1.64Z"/>
        <path class="cls-2" d="M374.84,58.29l.87-.87,3.69,8.37-.87.87-3.69-8.37Z"/>
        <path class="cls-2" d="M380.99,58.68c.34-1.39.65-2.34-.09-3.09-.67-.69-1.5-.53-2.12.09-.64.64-.77,1.51.04,2.32l.12.12-.84.84-.16-.16c-1.08-1.08-1.21-2.54.11-3.87,1.26-1.26,2.68-1.25,3.68-.25,1.08,1.08.75,2.38.4,3.7-.36,1.46-.41,2.36.18,2.95l.04.04,3.06-3.06.73.73-4.05,4.05-.25-.25c-1.08-1.08-1.35-2.16-.84-4.17Z"/>
        <path class="cls-2" d="M385.77,53.9c.34-1.39.65-2.34-.09-3.09-.67-.69-1.5-.53-2.12.09-.64.64-.77,1.51.04,2.32l.12.12-.84.84-.16-.16c-1.08-1.08-1.21-2.54.11-3.87,1.26-1.26,2.68-1.25,3.68-.25,1.08,1.08.75,2.39.4,3.7-.36,1.46-.41,2.36.18,2.95l.04.04,3.06-3.06.73.73-4.05,4.05-.25-.25c-1.08-1.08-1.35-2.16-.84-4.17Z"/>
      </g>
      <g>
        <path class="cls-2" d="M396.19,71.96c-2.14-2.14-2-4.18-.74-5.44,1.27-1.27,3.31-1.4,5.45.73,2.15,2.15,2.01,4.19.74,5.46-1.26,1.26-3.3,1.4-5.45-.75ZM400.06,68.09c-1.38-1.38-2.87-1.83-3.87-.83s-.55,2.5.83,3.87c1.39,1.39,2.88,1.84,3.88.84s.55-2.5-.84-3.88Z"/>
        <path class="cls-2" d="M400.14,65.17l-.72-.72c.54-.65.65-1.4.29-2.03l.87-.87,6.03,6.03-.87.87-4.91-4.91c.03.53-.21,1.15-.69,1.64Z"/>
        <path class="cls-2" d="M403.84,58.29l.87-.87,3.69,8.37-.87.87-3.69-8.37Z"/>
        <path class="cls-2" d="M409.99,58.68c.34-1.39.65-2.34-.09-3.09-.67-.69-1.5-.53-2.12.09-.64.64-.77,1.51.04,2.32l.12.12-.84.84-.16-.16c-1.08-1.08-1.21-2.54.11-3.87,1.26-1.26,2.68-1.25,3.68-.25,1.08,1.08.75,2.38.4,3.7-.36,1.46-.41,2.36.18,2.95l.04.04,3.06-3.06.73.73-4.05,4.05-.25-.25c-1.08-1.08-1.35-2.16-.84-4.17Z"/>
        <path class="cls-2" d="M414.77,53.9c.34-1.39.65-2.34-.09-3.09-.67-.69-1.5-.53-2.12.09-.64.64-.77,1.51.04,2.32l.12.12-.84.84-.16-.16c-1.08-1.08-1.21-2.54.11-3.87,1.26-1.26,2.68-1.25,3.68-.25,1.08,1.08.75,2.39.4,3.7-.36,1.46-.41,2.36.18,2.95l.04.04,3.06-3.06.73.73-4.05,4.05-.25-.25c-1.08-1.08-1.35-2.16-.84-4.17Z"/>
      </g>
      <path class="cls-2" d="M458.71,34.19c0-3.02,1.55-4.37,3.32-4.37s3.34,1.35,3.34,4.37-1.55,4.38-3.34,4.38-3.32-1.34-3.32-4.38ZM464.19,34.19c0-1.95-.73-3.32-2.16-3.32s-2.16,1.38-2.16,3.32.73,3.34,2.16,3.34,2.16-1.38,2.16-3.34Z"/>
      <path class="cls-3" d="M23.17,25.93v7.46l1.75,2.19s.45-6.43,2.86-6.29,2.8,6.29,2.8,6.29h5.94v-2.78l2.8-6.87.95,4.82h1.46l-.15,2.19,2.19-2.19h3.72l1.55-4.82,1.17,9.65h4.09l3.95-17.54,3.51,14.04,2.63.88.88-3.51,1.75,5.26,4.68.88,2.34-7.89s4.68-1.75,5.41-.88,2.19,8.77,2.19,8.77h5.12l3.07-4.39,3.36,4.39s1.02-5.26,1.9-5.26,4.82,5.26,4.82,5.26h3.66l.29-18.42,5.26,14.91,3.51-2.63v6.14s7.6.88,7.31,0,1.46-12.28,2.34-12.28,6.14,12.67,6.14,12.67h9.8l.44-9.41s2.92,3.75,2.92,2.88,2.63-5.26,2.63-5.26c0,0,3.22,13.06,4.24,11.79,1.02-1.27,3.07.09,3.07.09l2.34-8.37,2.63,7.89,3.51-24.56,3.36,25.04h4.68l2.49-8.37,4.39,3.51,5.26-4.39v8.48l4.24.77,3.66-18.02,1.75,14.91,1.75.88,4.39-4.39v6.62l5.26-.48,2.63-8.77,3.51,3.51,2.63-3.51,1.9,9.25h5.7l2.05-3.99,2.92,3.99,2.34-6.62,2.92,6.62h4.53l2.19-15.39,3.51,12.28,2.63-2.63,1.75,5.26h6.14s3.51-10.53,3.51-9.65,7.02,9.65,7.02,9.65h7.89l2.63-8.77.88,3.51,3.36-6.78,3.66,12.04h3.51l2.63-7.02,1.75,6.14,3.51-3.51,2.05,4.86h6.14l2.81-7.06s1.29,5.7,3.04,5.7,6.14-8.77,6.14-8.77v10.13h4.82s3.07-19.77,3.95-18.9,2.63,16.67,2.63,16.67l3.51-4.39,2.49,6.62h3.22l6.58-7.49,3.51,7.49h6.29l2.49-3.99,2.92,3.99,4.09-6.62,3.22,6.62h3.07l2.49-16.27,4.39,13.16,2.63-3.51.88,6.14,5.7.48,2.19-10.13,9.5,10.13h6.73l2.19-9.25,2.63,4.39,2.63-9.65,3.51,14.04h3.51l1.75-6.14,3.22,6.62,2.92-4.86,2.63,4.39h6.14l1.75-7.02,2.63,4.39h4.39l1.63-3.8"/>
    </g>
  </g>
</svg>