<?xml version="1.0" encoding="UTF-8"?>
<svg id="Layer_2" data-name="Layer 2" xmlns="http://www.w3.org/2000/svg" viewBox="0 0 17.95 17.95">
  <defs>
    <style>
      .cls-1 {
        fill: #6f2bff;
        stroke-width: 0px;
      }
    </style>
  </defs>
  <g id="Layer_1-2" data-name="Layer 1">
    <path class="cls-1" d="M8.98,0C4.03,0,0,4.03,0,8.98s4.03,8.98,8.98,8.98,8.98-4.03,8.98-8.98S13.93,0,8.98,0ZM8.98,16.76c-4.29,0-7.78-3.49-7.78-7.78S4.69,1.2,8.98,1.2s7.78,3.49,7.78,7.78-3.49,7.78-7.78,7.78ZM8.98,6.74c-.33,0-.6.27-.6.6v6.05c0,.33.27.6.6.6s.6-.27.6-.6v-6.05c0-.33-.27-.6-.6-.6ZM8.98,3.97c-.33,0-.6.27-.6.6v.1c0,.33.27.6.6.6s.6-.27.6-.6v-.1c0-.33-.27-.6-.6-.6Z"/>
  </g>
</svg>