<?xml version="1.0" encoding="UTF-8"?>
<svg id="Layer_2" data-name="Layer 2" xmlns="http://www.w3.org/2000/svg" viewBox="0 0 18 18">
  <defs>
    <style>
      .cls-1 {
        fill: none;
      }

      .cls-1, .cls-2 {
        stroke-width: 0px;
      }

      .cls-2 {
        fill: gray;
        fill-rule: evenodd;
      }
    </style>
  </defs>
  <g id="Layer_1-2" data-name="Layer 1">
    <g>
      <path class="cls-2" d="M9,15.93c-3.82,0-6.93-3.11-6.93-6.93s3.11-6.93,6.93-6.93,6.93,3.11,6.93,6.93-3.11,6.93-6.93,6.93ZM9,2.97c-3.33,0-6.03,2.71-6.03,6.03s2.71,6.03,6.03,6.03,6.03-2.71,6.03-6.03-2.71-6.03-6.03-6.03ZM9,9.45c-.25,0-.45-.2-.45-.45v-3.99c0-.25.2-.45.45-.45s.45.2.45.45v3.49l2.52.05c.25,0,.45.2.45.45s-.2.45-.45.45h-2.97Z"/>
      <rect class="cls-1" width="18" height="18"/>
    </g>
  </g>
</svg>